<?xml version="1.0" encoding="UTF-8"?>
<svg width="53px" height="40px" viewBox="0 0 53 40" version="1.1" xmlns="http://www.w3.org/2000/svg" xmlns:xlink="http://www.w3.org/1999/xlink">
    <!-- Generator: Sketch 52.2 (67145) - http://www.bohemiancoding.com/sketch -->
    <title>Group 32</title>
    <desc>Created with Sketch.</desc>
    <defs>
        <polygon id="path-1" points="0.3596084 0.391 14.250662 0.391 14.250662 23.9793 0.3596084 23.9793"></polygon>
    </defs>
    <g id="Overview" stroke="none" stroke-width="1" fill="none" fill-rule="evenodd">
        <g id="LD_Main_6" transform="translate(-103.000000, -2579.000000)">
            <g id="Group-32" transform="translate(103.000000, 2578.000000)">
                <path d="M41.7688,23.3844 C41.3458,23.3844 40.9538,23.1144 40.8168,22.6904 C40.6478,22.1654 40.9368,21.6014 41.4618,21.4324 L45.1988,20.2274 C45.7228,20.0574 46.2888,20.3474 46.4568,20.8724 C46.6258,21.3984 46.3368,21.9614 45.8118,22.1314 L42.0758,23.3354 C41.9738,23.3684 41.8708,23.3844 41.7688,23.3844" id="Fill-1" fill="#F01429"></path>
                <g id="Group-5" transform="translate(38.000000, 0.608700)">
                    <mask id="mask-2" fill="white">
                        <use xlink:href="#path-1"></use>
                    </mask>
                    <g id="Clip-4"></g>
                    <path d="M2.6741,4.5003 L9.4861,21.7533 L12.0701,20.9663 L7.9481,2.6973 L2.6741,4.5003 Z M8.8951,23.9793 C8.4941,23.9793 8.1181,23.7373 7.9651,23.3463 L0.4301,4.2603 C0.3291,4.0053 0.3371,3.7213 0.4511,3.4733 C0.5671,3.2253 0.7781,3.0353 1.0361,2.9463 L8.3561,0.4443 C8.6251,0.3533 8.9181,0.3793 9.1671,0.5183 C9.4141,0.6563 9.5921,0.8943 9.6541,1.1703 L14.2261,21.4313 C14.3411,21.9423 14.0421,22.4553 13.5421,22.6083 L9.1871,23.9363 C9.0891,23.9653 8.9911,23.9793 8.8951,23.9793 Z" id="Fill-3" fill="#F01429" mask="url(#mask-2)"></path>
                </g>
                <path d="M20.7981,10.7521 L16.0021,10.7521 C15.7951,10.7521 15.5931,10.6881 15.4241,10.5681 L11.1111,7.5101 C10.6601,7.1901 10.5551,6.5661 10.8741,6.1161 C11.1931,5.6651 11.8171,5.5591 12.2681,5.8781 L16.3201,8.7521 L20.7981,8.7521 C21.3511,8.7521 21.7981,9.2001 21.7981,9.7521 C21.7981,10.3041 21.3511,10.7521 20.7981,10.7521" id="Fill-6" fill="#68757C"></path>
                <path d="M7.7024,26.8737 C7.1494,26.8737 6.7024,26.4257 6.7024,25.8737 L6.7024,24.4487 C6.7024,24.0827 6.4044,23.7857 6.0394,23.7857 L5.6644,23.7857 C5.1114,23.7857 4.6644,23.3377 4.6644,22.7857 C4.6644,22.2327 5.1114,21.7857 5.6644,21.7857 L6.0394,21.7857 C7.5084,21.7857 8.7024,22.9797 8.7024,24.4487 L8.7024,25.8737 C8.7024,26.4257 8.2554,26.8737 7.7024,26.8737" id="Fill-8" fill="#67757C"></path>
                <path d="M2.1819,21.8263 L4.5919,22.6593 L10.7719,5.3793 L6.5149,3.4943 L2.1819,21.8263 Z M5.2009,24.9283 C5.0919,24.9283 4.9819,24.9103 4.8739,24.8733 L0.6739,23.4213 C0.1889,23.2533 -0.0901,22.7453 0.0269,22.2463 L4.8449,1.8623 C4.9139,1.5733 5.1079,1.3293 5.3739,1.1973 C5.6399,1.0643 5.9509,1.0573 6.2239,1.1783 L12.4319,3.9273 C12.9109,4.1393 13.1449,4.6853 12.9679,5.1783 L6.1419,24.2643 C5.9959,24.6733 5.6119,24.9283 5.2009,24.9283 Z" id="Fill-10" fill="#68757C"></path>
                <path d="M28.4055,40.6085 C27.7605,40.6085 27.1125,40.4025 26.5655,39.9785 L24.6365,38.4825 C24.2005,38.1435 24.1215,37.5155 24.4605,37.0795 C24.7995,36.6435 25.4265,36.5625 25.8635,36.9015 L27.7925,38.3985 C28.2285,38.7385 28.8625,38.6585 29.2035,38.2205 C29.2075,38.2155 29.2115,38.2105 29.2165,38.2055 C29.5435,37.7675 29.4615,37.1435 29.0275,36.8065 L27.0975,35.3105 C26.6615,34.9715 26.5825,34.3435 26.9215,33.9065 C27.2605,33.4715 27.8865,33.3915 28.3245,33.7305 L30.2535,35.2265 C31.5625,36.2415 31.8015,38.1335 30.7855,39.4445 C30.7795,39.4525 30.7725,39.4605 30.7655,39.4685 C30.1745,40.2165 29.2945,40.6085 28.4055,40.6085" id="Fill-12" fill="#68757C"></path>
                <path d="M31.5764,37.9542 C30.8624,37.9542 30.1724,37.7192 29.5984,37.2742 L27.4494,35.6062 C27.0134,35.2672 26.9334,34.6392 27.2724,34.2032 C27.6114,33.7672 28.2384,33.6862 28.6764,34.0262 L30.8254,35.6942 C31.0874,35.8972 31.4194,35.9882 31.7374,35.9442 C32.0654,35.9022 32.3574,35.7362 32.5594,35.4752 C32.9794,34.9342 32.8814,34.1562 32.3434,33.7382 L30.1924,32.0702 C29.7574,31.7322 29.6774,31.1042 30.0154,30.6672 C30.3544,30.2312 30.9824,30.1512 31.4194,30.4902 L33.5694,32.1582 C34.9784,33.2522 35.2354,35.2892 34.1414,36.6992 C33.6104,37.3842 32.8464,37.8202 31.9884,37.9282 C31.8504,37.9452 31.7134,37.9542 31.5764,37.9542" id="Fill-14" fill="#68757C"></path>
                <path d="M34.3342,34.4 C33.6202,34.4 32.9302,34.165 32.3562,33.72 L30.2072,32.052 C29.7712,31.713 29.6912,31.085 30.0302,30.649 C30.3692,30.213 30.9962,30.133 31.4342,30.472 L33.5832,32.14 C33.8452,32.343 34.1772,32.433 34.4952,32.39 C34.8232,32.348 35.1152,32.182 35.3172,31.921 C35.3212,31.916 35.3262,31.91 35.3302,31.905 C35.7352,31.367 35.6352,30.599 35.1012,30.185 L32.9512,28.516 C32.5152,28.177 32.4362,27.549 32.7742,27.113 C33.1132,26.677 33.7412,26.597 34.1782,26.936 L36.3272,28.605 C37.7362,29.698 37.9932,31.735 36.8992,33.145 C36.8942,33.153 36.8872,33.161 36.8812,33.169 C36.3522,33.839 35.5952,34.267 34.7462,34.374 C34.6082,34.391 34.4712,34.4 34.3342,34.4" id="Fill-16" fill="#68757C"></path>
                <path d="M37.0657,30.8805 C36.3517,30.8805 35.6617,30.6455 35.0877,30.2005 L32.9387,28.5325 C32.5027,28.1935 32.4227,27.5655 32.7617,27.1295 C33.1007,26.6935 33.7287,26.6135 34.1657,26.9525 L36.3147,28.6205 C36.5767,28.8235 36.9117,28.9125 37.2267,28.8705 C37.5547,28.8285 37.8467,28.6625 38.0487,28.4015 C38.0527,28.3965 38.0577,28.3915 38.0617,28.3855 C38.4667,27.8475 38.3667,27.0795 37.8327,26.6655 L35.6827,24.9965 C35.2467,24.6575 35.1677,24.0295 35.5057,23.5935 C35.8447,23.1585 36.4717,23.0775 36.9097,23.4165 L39.0587,25.0855 C40.4677,26.1785 40.7247,28.2155 39.6307,29.6255 C39.6257,29.6335 39.6187,29.6415 39.6127,29.6495 C39.0837,30.3195 38.3267,30.7475 37.4777,30.8545 C37.3397,30.8715 37.2027,30.8805 37.0657,30.8805" id="Fill-18" fill="#68757C"></path>
                <path d="M39.7971,27.361 C39.0831,27.361 38.3931,27.126 37.8191,26.681 L35.6701,25.013 C35.2341,24.674 35.1541,24.046 35.4931,23.61 C35.8321,23.174 36.4591,23.094 36.8971,23.433 L39.0461,25.101 C39.3071,25.304 39.6391,25.393 39.9581,25.351 C40.2861,25.309 40.5781,25.143 40.7801,24.882 C41.2001,24.341 41.1021,23.563 40.5641,23.145 L26.3351,12.805 C25.8881,12.481 25.7891,11.855 26.1141,11.408 C26.4381,10.962 27.0631,10.862 27.5111,11.187 L41.7651,21.546 C43.1991,22.659 43.4561,24.696 42.3621,26.106 C41.8311,26.791 41.0671,27.227 40.2091,27.335 C40.0711,27.352 39.9341,27.361 39.7971,27.361" id="Fill-20" fill="#68757C"></path>
                <path d="M21.301,17.1852 C21.215,17.1852 21.129,17.1822 21.041,17.1762 C19.992,17.1062 19.044,16.6232 18.372,15.8132 C17.047,14.2162 17.232,11.8952 18.793,10.5292 L24.649,5.4062 C24.853,5.2272 25.134,5.1412 25.391,5.1622 L37.78,6.2122 L39.155,5.6132 C39.664,5.3902 40.251,5.6242 40.472,6.1302 C40.693,6.6362 40.461,7.2252 39.954,7.4462 L38.348,8.1462 C38.196,8.2122 38.021,8.2402 37.864,8.2262 L25.646,7.1912 L20.11,12.0352 C19.371,12.6812 19.283,13.7802 19.911,14.5362 C20.229,14.9182 20.678,15.1482 21.174,15.1812 C21.691,15.2122 22.147,15.0452 22.513,14.7082 L26.194,11.3122 C26.597,10.9392 27.232,10.9632 27.607,11.3692 C27.981,11.7752 27.955,12.4082 27.549,12.7822 L23.868,16.1782 C23.159,16.8322 22.256,17.1852 21.301,17.1852" id="Fill-22" fill="#F01429"></path>
                <path d="M11.7835,23.0851 C11.7555,23.0851 11.7255,23.0861 11.6965,23.0891 C11.4405,23.1121 11.2105,23.2331 11.0465,23.4291 L8.0405,27.0271 C7.8755,27.2241 7.7975,27.4731 7.8205,27.7281 C7.8435,27.9831 7.9645,28.2141 8.1605,28.3781 L9.0105,29.0871 C9.2065,29.2521 9.4595,29.3281 9.7105,29.3071 C9.9655,29.2841 10.1955,29.1631 10.3595,28.9661 L13.3665,25.3691 C13.7055,24.9631 13.6515,24.3561 13.2455,24.0171 L12.3965,23.3091 C12.2225,23.1631 12.0085,23.0851 11.7835,23.0851 M9.6195,31.3111 C8.9285,31.3111 8.2635,31.0711 7.7265,30.6221 L6.8785,29.9131 C6.2715,29.4061 5.8985,28.6931 5.8285,27.9061 C5.7585,27.1191 5.9985,26.3511 6.5065,25.7451 L9.5115,22.1471 C10.0175,21.5411 10.7305,21.1681 11.5175,21.0971 C12.3035,21.0251 13.0735,21.2671 13.6795,21.7741 L14.5285,22.4821 C15.7795,23.5291 15.9475,25.3981 14.9015,26.6501 L11.8945,30.2491 C11.3875,30.8551 10.6755,31.2281 9.8875,31.2981 C9.7985,31.3071 9.7085,31.3111 9.6195,31.3111" id="Fill-24" fill="#F01429"></path>
                <path d="M12.5842,32.6627 C12.7812,32.8277 13.0332,32.9027 13.2852,32.8817 C13.5402,32.8587 13.7712,32.7387 13.9352,32.5417 L16.9412,28.9437 C17.2802,28.5377 17.2272,27.9327 16.8202,27.5927 L15.9722,26.8837 C15.5652,26.5437 14.9602,26.5997 14.6212,27.0057 L11.6152,30.6027 C11.4502,30.7997 11.3732,31.0477 11.3962,31.3027 C11.4182,31.5587 11.5392,31.7887 11.7362,31.9537 L12.5842,32.6627 Z M13.1942,34.8857 C12.5032,34.8857 11.8402,34.6467 11.3032,34.1977 C11.3022,34.1977 11.3022,34.1977 11.3022,34.1977 L10.4532,33.4877 C9.8472,32.9807 9.4752,32.2687 9.4032,31.4817 C9.3332,30.6937 9.5732,29.9267 10.0812,29.3197 L13.0862,25.7227 C14.1332,24.4707 16.0042,24.3027 17.2542,25.3487 L18.1042,26.0587 C19.3552,27.1047 19.5222,28.9747 18.4772,30.2257 L15.4702,33.8237 C14.9632,34.4307 14.2512,34.8037 13.4632,34.8737 C13.3732,34.8817 13.2832,34.8857 13.1942,34.8857 Z" id="Fill-26" fill="#F01429"></path>
                <path d="M18.9407,30.2423 C18.9127,30.2423 18.8827,30.2433 18.8537,30.2463 C18.5977,30.2693 18.3677,30.3903 18.2037,30.5863 L15.8077,33.4533 C15.4687,33.8593 15.5227,34.4653 15.9287,34.8043 L16.7777,35.5133 C17.1817,35.8513 17.7887,35.7993 18.1287,35.3923 L20.5237,32.5263 C20.8627,32.1203 20.8087,31.5143 20.4037,31.1753 L19.5537,30.4653 C19.3797,30.3203 19.1657,30.2423 18.9407,30.2423 M17.3897,37.7353 C16.7197,37.7353 16.0467,37.5103 15.4947,37.0483 L14.6457,36.3393 C13.3947,35.2933 13.2267,33.4233 14.2727,32.1713 L16.6687,29.3043 C17.1747,28.6983 17.8877,28.3253 18.6747,28.2543 C19.4527,28.1843 20.2307,28.4233 20.8367,28.9313 L21.6857,29.6403 C22.9367,30.6853 23.1047,32.5553 22.0587,33.8073 L19.6637,36.6753 C19.0787,37.3743 18.2367,37.7353 17.3897,37.7353" id="Fill-28" fill="#F01429"></path>
                <path d="M22.5003,33.8034 C22.2253,33.8034 21.9523,33.9204 21.7623,34.1474 L20.5573,35.5914 C20.3923,35.7874 20.3143,36.0364 20.3373,36.2914 C20.3593,36.5464 20.4803,36.7774 20.6783,36.9424 L21.5263,37.6504 L21.5263,37.6514 C21.7243,37.8154 21.9793,37.8944 22.2273,37.8704 C22.4813,37.8474 22.7123,37.7264 22.8763,37.5304 L24.0833,36.0854 C24.2483,35.8884 24.3253,35.6404 24.3033,35.3854 C24.2803,35.1304 24.1593,34.8994 23.9623,34.7344 L23.1133,34.0264 C22.9353,33.8764 22.7173,33.8034 22.5003,33.8034 M22.1363,39.8744 C21.4443,39.8744 20.7803,39.6344 20.2433,39.1854 L19.3953,38.4764 C18.7883,37.9694 18.4163,37.2574 18.3453,36.4704 C18.2743,35.6824 18.5153,34.9144 19.0223,34.3084 L20.2283,32.8644 C21.2733,31.6134 23.1443,31.4444 24.3963,32.4914 L25.2453,33.1994 C25.8523,33.7074 26.2243,34.4194 26.2953,35.2064 C26.3653,35.9944 26.1253,36.7614 25.6173,37.3684 L24.4113,38.8124 C23.9043,39.4184 23.1913,39.7914 22.4043,39.8624 C22.3143,39.8704 22.2253,39.8744 22.1363,39.8744" id="Fill-30" fill="#F01429"></path>
            </g>
        </g>
    </g>
</svg>