<?xml version="1.0" encoding="UTF-8"?>
<svg width="42px" height="48px" viewBox="0 0 42 48" version="1.1" xmlns="http://www.w3.org/2000/svg" xmlns:xlink="http://www.w3.org/1999/xlink">
    <!-- Generator: Sketch 52.2 (67145) - http://www.bohemiancoding.com/sketch -->
    <title>Group 19</title>
    <desc>Created with Sketch.</desc>
    <defs>
        <polygon id="path-1" points="0.8802 0.8333 15.169 0.8333 15.169 10.5903 0.8802 10.5903"></polygon>
    </defs>
    <g id="Overview" stroke="none" stroke-width="1" fill="none" fill-rule="evenodd">
        <g id="LD_Main_6" transform="translate(-108.000000, -2682.000000)">
            <g id="Group-18-Copy-9" transform="translate(90.000000, 2667.000000)">
                <g id="Group-19" transform="translate(18.000000, 15.000000)">
                    <g id="Group-3" transform="translate(26.000000, 32.997600)">
                        <mask id="mask-2" fill="white">
                            <use xlink:href="#path-1"></use>
                        </mask>
                        <g id="Clip-2"></g>
                        <path d="M11.1172,10.5903 L0.8802,10.5903 L0.8802,8.5903 L11.1172,8.5903 C12.2482,8.5903 13.1692,7.6703 13.1692,6.5383 L13.1692,2.8333 L8.1282,2.8333 L8.1282,0.8333 L15.1692,0.8333 L15.1692,6.5383 C15.1692,8.7733 13.3512,10.5903 11.1172,10.5903" id="Fill-1" fill="#68757C" mask="url(#mask-2)"></path>
                    </g>
                    <path d="M11.4277,43.5879 L7.6137,43.5879 C5.7997,43.5879 4.3237,42.1119 4.3237,40.2989 L4.3237,7.5519 L6.3237,7.5519 L6.3237,40.2989 C6.3237,41.0099 6.9027,41.5879 7.6137,41.5879 L11.4277,41.5879 L11.4277,43.5879 Z" id="Fill-4" fill="#68757C"></path>
                    <path d="M2,7.083 L27.024,7.083 L27.024,3.991 C27.024,3.267 27.219,2.586 27.558,2 L5.088,2 C3.385,2 2,3.385 2,5.088 L2,7.083 Z M37.244,43.596 C34.904,43.596 33.001,41.693 33.001,39.353 L33.001,3.991 C33.001,2.895 32.109,2.002 31.013,2.002 C29.916,2.002 29.024,2.895 29.024,3.991 L29.024,9.083 L0,9.083 L0,5.088 C0,2.283 2.282,0 5.088,0 L30.98,0.002 L31.013,0.002 C33.212,0.002 35.001,1.792 35.001,3.991 L35.001,39.353 C35.001,40.59 36.007,41.596 37.244,41.596 L37.244,43.596 Z" id="Fill-6" fill="#68757C"></path>
                    <path d="M18.8926,36.6451 L18.9226,36.6451 C19.6336,36.6531 20.3106,36.9641 20.7816,37.4971 C21.0036,37.7491 21.2636,37.6811 21.3666,37.6401 C21.4676,37.6001 21.7046,37.4691 21.6916,37.1391 C21.6636,36.4231 21.9376,35.7311 22.4466,35.2341 C22.9546,34.7361 23.6416,34.4741 24.3646,34.5211 C24.7046,34.5441 24.8346,34.3101 24.8786,34.2091 C24.9216,34.1081 24.9966,33.8491 24.7536,33.6251 L24.6816,33.5511 C24.2276,33.1391 23.9326,32.4551 23.9406,31.7441 C23.9496,31.0321 24.2586,30.3541 24.7916,29.8841 C25.0446,29.6611 24.9766,29.4001 24.9366,29.2981 C24.8956,29.1961 24.7456,28.9661 24.4346,28.9741 C23.7346,29.0081 23.0256,28.7271 22.5286,28.2171 C22.0326,27.7081 21.7726,27.0101 21.8176,26.3011 C21.8376,25.9651 21.6056,25.8301 21.5046,25.7861 C21.4036,25.7431 21.1436,25.6691 20.9206,25.9111 C20.4336,26.4391 19.7056,26.7211 19.0386,26.7241 C18.3276,26.7161 17.6506,26.4051 17.1796,25.8721 C16.9556,25.6201 16.6966,25.6871 16.5946,25.7291 C16.4936,25.7701 16.2566,25.9001 16.2696,26.2301 C16.2976,26.9461 16.0236,27.6381 15.5146,28.1351 C15.0046,28.6321 14.3166,28.8961 13.5966,28.8481 C13.2666,28.8251 13.1256,29.0591 13.0816,29.1601 C13.0386,29.2611 12.9646,29.5201 13.2066,29.7441 L13.2796,29.8181 C13.7336,30.2301 14.0286,30.9151 14.0206,31.6251 C14.0116,32.3371 13.7026,33.0151 13.1686,33.4851 C12.9156,33.7081 12.9846,33.9691 13.0246,34.0711 C13.0656,34.1721 13.2136,34.3951 13.5266,34.3951 C14.2146,34.3571 14.9346,34.6421 15.4326,35.1521 C15.9286,35.6611 16.1886,36.3591 16.1436,37.0681 C16.1226,37.4041 16.3556,37.5401 16.4556,37.5831 C16.5576,37.6261 16.8166,37.7001 17.0396,37.4581 C17.5196,36.9381 18.1926,36.6451 18.8926,36.6451 M21.1616,39.6821 C20.4576,39.6821 19.7786,39.3831 19.2866,38.8251 C19.1466,38.6661 19.0226,38.6421 18.8926,38.6451 C18.8056,38.6451 18.6456,38.6671 18.5126,38.8111 C17.7776,39.6081 16.6616,39.8481 15.6686,39.4211 C14.6766,38.9971 14.0796,38.0261 14.1476,36.9491 C14.1606,36.7431 14.0616,36.6101 14.0016,36.5491 C13.9416,36.4881 13.8546,36.3931 13.6106,36.3931 C12.5316,36.4361 11.5706,35.8161 11.1676,34.8141 C10.7666,33.8121 11.0316,32.7041 11.8406,31.9901 C11.9956,31.8531 12.0196,31.6891 12.0206,31.6031 C12.0216,31.5181 12.0006,31.3531 11.8536,31.2181 L11.8096,31.1751 C11.0486,30.4421 10.8266,29.3491 11.2446,28.3731 C11.6676,27.3811 12.6416,26.7861 13.7156,26.8521 C13.9326,26.8671 14.0556,26.7661 14.1166,26.7061 C14.1776,26.6451 14.2796,26.5151 14.2716,26.3151 C14.2296,25.2291 14.8496,24.2731 15.8516,23.8721 C16.8526,23.4731 17.9606,23.7341 18.6746,24.5441 C18.8146,24.7031 18.9346,24.7091 19.0686,24.7241 C19.1556,24.7241 19.3156,24.7021 19.4486,24.5581 C20.1856,23.7611 21.3006,23.5221 22.2916,23.9481 C23.2846,24.3731 23.8816,25.3431 23.8136,26.4201 C23.8006,26.6261 23.8996,26.7591 23.9586,26.8201 C24.0206,26.8821 24.1216,26.9771 24.3506,26.9761 C25.4146,26.9301 26.3916,27.5531 26.7926,28.5551 C27.1946,29.5571 26.9296,30.6661 26.1206,31.3791 C25.9656,31.5161 25.9416,31.6801 25.9406,31.7661 C25.9396,31.8521 25.9596,32.0161 26.1076,32.1511 L26.1796,32.2261 C26.9046,32.8891 27.1416,34.0031 26.7166,34.9961 C26.2926,35.9881 25.3316,36.5831 24.2456,36.5181 C24.0406,36.5011 23.9066,36.6041 23.8446,36.6641 C23.7836,36.7241 23.6816,36.8541 23.6896,37.0541 C23.7316,38.1401 23.1116,39.0961 22.1096,39.4971 C21.7986,39.6211 21.4776,39.6821 21.1616,39.6821" id="Fill-8" fill="#F01429"></path>
                    <path d="M18.9834,29.7163 C18.2184,29.7163 17.4904,30.1643 17.1704,30.9103 C16.7444,31.9073 17.2084,33.0673 18.2064,33.4943 C19.2064,33.9213 20.3634,33.4563 20.7914,32.4593 C21.2164,31.4613 20.7534,30.3013 19.7544,29.8753 C19.5034,29.7673 19.2414,29.7163 18.9834,29.7163 M18.9744,35.6533 C18.4554,35.6533 17.9264,35.5503 17.4194,35.3333 C15.4084,34.4723 14.4714,32.1353 15.3314,30.1233 C16.1934,28.1123 18.5274,27.1753 20.5424,28.0363 C22.5524,28.8973 23.4894,31.2343 22.6294,33.2453 C21.9854,34.7503 20.5154,35.6533 18.9744,35.6533" id="Fill-10" fill="#F01429"></path>
                    <polygon id="Fill-12" fill="#F01429" points="23.5254 47.9566 18.4774 38.4806 20.2434 37.5406 23.7504 44.1226 24.6254 42.8596 26.0464 42.8636 22.5544 36.3096 24.3204 35.3696 29.3824 44.8726 25.6704 44.8626"></polygon>
                    <polygon id="Fill-14" fill="#F01429" points="14.8799 47.9976 12.7199 44.9336 9.0249 44.9126 13.9919 35.5846 15.7579 36.5246 12.3449 42.9306 13.7609 42.9386 14.6419 44.1886 18.0679 37.7566 19.8339 38.6966"></polygon>
                    <polygon id="Fill-16" fill="#F01429" points="10.325 18.7266 28.447 18.7266 28.447 16.7266 10.325 16.7266"></polygon>
                    <polygon id="Fill-18" fill="#F01429" points="10.325 14.7196 28.447 14.7196 28.447 12.7196 10.325 12.7196"></polygon>
                </g>
            </g>
        </g>
    </g>
</svg>