<?xml version="1.0" encoding="UTF-8"?>
<svg width="44px" height="42px" viewBox="0 0 44 42" version="1.1" xmlns="http://www.w3.org/2000/svg" xmlns:xlink="http://www.w3.org/1999/xlink">
    <!-- Generator: Sketch 52.2 (67145) - http://www.bohemiancoding.com/sketch -->
    <title>Group 21</title>
    <desc>Created with Sketch.</desc>
    <defs>
        <polygon id="path-1" points="0 0.426697674 22.6829209 0.426697674 22.6829209 12.2790698 0 12.2790698"></polygon>
        <polygon id="path-3" points="0.00255813953 0.426697674 22.6845581 0.426697674 22.6845581 12.2790698 0.00255813953 12.2790698"></polygon>
    </defs>
    <g id="Overview" stroke="none" stroke-width="1" fill="none" fill-rule="evenodd">
        <g id="LD_Main_6" transform="translate(-418.000000, -2577.000000)">
            <g id="Group-21" transform="translate(418.000000, 2577.000000)">
                <path d="M21.4958419,8.08157209 C19.3674698,8.08157209 17.6371442,9.81292093 17.6371442,11.9402698 C17.6371442,14.0686419 19.3674698,15.7999907 21.4958419,15.7999907 C23.624214,15.7999907 25.3545395,14.0686419 25.3545395,11.9402698 C25.3545395,9.81292093 23.624214,8.08157209 21.4958419,8.08157209 M21.4958419,17.8465023 C18.2388186,17.8465023 15.5906326,15.197293 15.5906326,11.9402698 C15.5906326,8.68426977 18.2388186,6.03506047 21.4958419,6.03506047 C24.7528651,6.03506047 27.4010512,8.68426977 27.4010512,11.9402698 C27.4010512,15.197293 24.7528651,17.8465023 21.4958419,17.8465023" id="Fill-1" fill="#67757C"></path>
                <path d="M21.4958419,2.04651163 C15.6469116,2.04651163 10.8887721,6.80465116 10.8887721,12.6525581 C10.8887721,13.0557209 10.9174233,13.4742326 10.9808651,13.9705116 C11.9273767,22.6333953 21.392493,32.8526512 21.4876558,32.9549767 C21.5204,32.991814 21.5510977,33.0214884 21.5777023,33.0460465 C21.6053302,33.0214884 21.6360279,32.991814 21.6667256,32.9580465 C21.7577953,32.8587907 31.0868186,22.6108837 32.0108186,13.9694884 C32.0732372,13.4670698 32.1018884,13.0413953 32.1018884,12.6505116 C32.0998419,6.80362791 27.3427256,2.04651163 21.4958419,2.04651163 Z M21.5787256,35.2388837 L20.7949116,34.975907 C20.4633767,34.7968372 20.2075628,34.5942326 19.9773302,34.3353488 C19.5844,33.9147907 9.96579535,23.5256744 8.94765581,14.2099535 C8.87705116,13.6512558 8.84226047,13.1365581 8.84226047,12.6525581 C8.84226047,5.676 14.5192837,0 21.4958419,0 C28.4703535,0 34.1463535,5.67497674 34.1484,12.6505116 C34.1484,13.1263256 34.1146326,13.6348837 34.0440279,14.203814 C33.0504465,23.5021395 23.5730512,33.9076279 23.1709116,34.3455814 C22.9273767,34.6075349 22.6766791,34.8070698 22.3993767,34.9564651 L22.2151907,35.0352558 L21.5787256,35.2388837 Z" id="Fill-3" fill="#67757C"></path>
                <g id="Group-7" transform="translate(0.000000, 28.736093)">
                    <mask id="mask-2" fill="white">
                        <use xlink:href="#path-1"></use>
                    </mask>
                    <g id="Clip-6"></g>
                    <path d="M21.6596651,12.2790698 L2.0499907,12.2790698 C1.30506047,12.2790698 0.640967442,11.8933023 0.272595349,11.2466047 C-0.0968,10.599907 -0.0906604651,9.83144186 0.288967442,9.19088372 L4.87724651,1.43153488 C5.24459535,0.810418605 5.91994419,0.426697674 6.63826977,0.426697674 L12.1945488,0.426697674 C12.7604093,0.426697674 13.2178047,0.885116279 13.2178047,1.44995349 C13.2178047,2.0147907 12.7604093,2.4732093 12.1945488,2.4732093 L6.63826977,2.4732093 L2.0499907,10.2325581 L21.6596651,10.2325581 C22.2255256,10.2325581 22.6829209,10.6909767 22.6829209,11.255814 C22.6829209,11.8206512 22.2255256,12.2790698 21.6596651,12.2790698" id="Fill-5" fill="#F01429" mask="url(#mask-2)"></path>
                </g>
                <g id="Group-10" transform="translate(20.465116, 28.736093)">
                    <mask id="mask-4" fill="white">
                        <use xlink:href="#path-3"></use>
                    </mask>
                    <g id="Clip-9"></g>
                    <path d="M20.6344651,12.2790698 L1.02581395,12.2790698 C0.459953488,12.2790698 0.00255813953,11.8206512 0.00255813953,11.255814 C0.00255813953,10.6909767 0.459953488,10.2325581 1.02581395,10.2325581 L20.6344651,10.2325581 L16.0472093,2.4732093 L10.4909302,2.4732093 C9.92506977,2.4732093 9.46767442,2.0147907 9.46767442,1.44995349 C9.46767442,0.885116279 9.92506977,0.426697674 10.4909302,0.426697674 L16.046186,0.426697674 C16.7665581,0.426697674 17.441907,0.81144186 17.8082326,1.43153488 L22.3965116,9.19088372 C22.7751163,9.83246512 22.7812558,10.6009302 22.4118605,11.2466047 C22.0434884,11.8933023 21.3793953,12.2790698 20.6344651,12.2790698" id="Fill-8" fill="#F01429" mask="url(#mask-4)"></path>
                </g>
                <path d="M11.7038977,37.8709023 L6.17217674,37.8709023 C5.60631628,37.8709023 5.14892093,37.4124837 5.14892093,36.8476465 C5.14892093,36.2828093 5.60631628,35.8243907 6.17217674,35.8243907 L11.7038977,35.8243907 C12.2697581,35.8243907 12.7271535,36.2828093 12.7271535,36.8476465 C12.7271535,37.4124837 12.2697581,37.8709023 11.7038977,37.8709023" id="Fill-11" fill="#F01429"></path>
                <path d="M9.84924651,34.8011349 L7.13147907,34.8011349 C6.5656186,34.8011349 6.10822326,34.3427163 6.10822326,33.7778791 C6.10822326,33.2130419 6.5656186,32.7546233 7.13147907,32.7546233 L9.84924651,32.7546233 C10.415107,32.7546233 10.8725023,33.2130419 10.8725023,33.7778791 C10.8725023,34.3427163 10.415107,34.8011349 9.84924651,34.8011349" id="Fill-13" fill="#F01429"></path>
                <path d="M35.4306419,34.8011349 L31.6896186,34.8011349 C31.1237581,34.8011349 30.6663628,34.3427163 30.6663628,33.7778791 C30.6663628,33.2130419 31.1237581,32.7546233 31.6896186,32.7546233 L35.4306419,32.7546233 C35.9965023,32.7546233 36.4538977,33.2130419 36.4538977,33.7778791 C36.4538977,34.3427163 35.9965023,34.8011349 35.4306419,34.8011349" id="Fill-15" fill="#F01429"></path>
                <path d="M36.8376186,37.8709023 L31.3058977,37.8709023 C30.7400372,37.8709023 30.2826419,37.4124837 30.2826419,36.8476465 C30.2826419,36.2828093 30.7400372,35.8243907 31.3058977,35.8243907 L36.8376186,35.8243907 C37.4034791,35.8243907 37.8608744,36.2828093 37.8608744,36.8476465 C37.8608744,37.4124837 37.4034791,37.8709023 36.8376186,37.8709023" id="Fill-17" fill="#F01429"></path>
                <path d="M27.6603442,36.6238605 L15.7967163,36.6238605 C15.2318791,36.6238605 14.7734605,36.1654419 14.7734605,35.6006047 C14.7734605,35.0357674 15.2318791,34.5773488 15.7967163,34.5773488 L27.6603442,34.5773488 C28.2262047,34.5773488 28.6836,35.0357674 28.6836,35.6006047 C28.6836,36.1654419 28.2262047,36.6238605 27.6603442,36.6238605" id="Fill-19" fill="#67757C"></path>
            </g>
        </g>
    </g>
</svg>