<?xml version="1.0" encoding="UTF-8"?>
<svg width="37px" height="50px" viewBox="0 0 37 50" version="1.1" xmlns="http://www.w3.org/2000/svg" xmlns:xlink="http://www.w3.org/1999/xlink">
    <!-- Generator: Sketch 52.2 (67145) - http://www.bohemiancoding.com/sketch -->
    <title>Group 17</title>
    <desc>Created with Sketch.</desc>
    <defs>
        <polygon id="path-1" points="0.5376 0.946 36.5376 0.946 36.5376 36.9459 0.5376 36.9459"></polygon>
        <polygon id="path-3" points="0 0.516 17.9709 0.516 17.9709 21 0 21"></polygon>
    </defs>
    <g id="Overview" stroke="none" stroke-width="1" fill="none" fill-rule="evenodd">
        <g id="LD_Main_6" transform="translate(-420.000000, -2688.000000)">
            <g id="Group-18-Copy-8" transform="translate(399.000000, 2676.000000)">
                <g id="Group-17" transform="translate(21.000000, 11.000000)">
                    <g id="Group-3" transform="translate(0.000000, 0.054200)">
                        <mask id="mask-2" fill="white">
                            <use xlink:href="#path-1"></use>
                        </mask>
                        <g id="Clip-2"></g>
                        <path d="M15.3506,32.3149 C15.5226,32.3149 15.6946,32.3319 15.8676,32.3659 C16.9186,32.5749 17.7276,33.3899 17.9296,34.4429 C18.0166,34.8969 18.3826,34.9449 18.5376,34.9459 C18.6916,34.9459 19.0586,34.8969 19.1456,34.4429 C19.3476,33.3899 20.1566,32.5749 21.2066,32.3659 C22.2596,32.1569 23.3176,32.5999 23.9066,33.4959 C24.1586,33.8799 24.5176,33.7859 24.6606,33.7279 C24.8026,33.6689 25.1226,33.4829 25.0296,33.0309 C24.8126,31.9809 25.2476,30.9189 26.1396,30.3229 C27.0306,29.7289 28.1786,29.7319 29.0656,30.3339 C29.4506,30.5939 29.7426,30.3689 29.8506,30.2589 C29.9596,30.1499 30.1846,29.8559 29.9256,29.4739 C29.3246,28.5869 29.3196,27.4389 29.9146,26.5469 C30.5106,25.6569 31.5726,25.2229 32.6216,25.4379 C33.0686,25.5319 33.2596,25.2099 33.3196,25.0679 C33.3776,24.9259 33.4736,24.5679 33.0866,24.3139 C32.1926,23.7249 31.7486,22.6659 31.9576,21.6149 C32.1666,20.5639 32.9826,19.7549 34.0346,19.5539 C34.4886,19.4669 34.5376,19.0999 34.5376,18.9459 C34.5376,18.7919 34.4886,18.4239 34.0346,18.3369 C32.9826,18.1359 32.1676,17.3269 31.9576,16.2759 C31.7486,15.2249 32.1926,14.1659 33.0866,13.5769 C33.4736,13.3229 33.3776,12.9639 33.3196,12.8219 C33.2606,12.6799 33.0676,12.3619 32.6216,12.4529 C31.5726,12.6699 30.5096,12.2329 29.9146,11.3429 C29.3196,10.4519 29.3246,9.3039 29.9256,8.4179 C30.1846,8.0349 29.9596,7.7409 29.8506,7.6319 C29.7426,7.5229 29.4496,7.2979 29.0656,7.5569 C28.1776,8.1579 27.0296,8.1629 26.1396,7.5679 C25.2476,6.9729 24.8126,5.9099 25.0296,4.8609 C25.1226,4.4079 24.8026,4.2229 24.6606,4.1639 C24.5176,4.1039 24.1596,4.0089 23.9056,4.3959 C23.3176,5.2899 22.2586,5.7369 21.2066,5.5239 C20.1566,5.3149 19.3476,4.5009 19.1456,3.4479 C19.0586,2.9949 18.6916,2.9449 18.5376,2.9459 C18.3826,2.9459 18.0166,2.9949 17.9296,3.4479 C17.7276,4.5009 16.9186,5.3149 15.8676,5.5239 C14.8186,5.7339 13.7566,5.2899 13.1686,4.3959 C12.9126,4.0089 12.5556,4.1039 12.4146,4.1639 C12.2726,4.2219 11.9516,4.4079 12.0446,4.8609 C12.2616,5.9099 11.8266,6.9729 10.9346,7.5679 C10.0446,8.1639 8.8966,8.1599 8.0086,7.5579 C7.6256,7.2989 7.3326,7.5229 7.2236,7.6319 C7.1146,7.7409 6.8896,8.0349 7.1486,8.4179 C7.7496,9.3039 7.7546,10.4519 7.1596,11.3429 C6.5656,12.2329 5.5036,12.6699 4.4526,12.4529 C3.9986,12.3579 3.8136,12.6799 3.7546,12.8219 C3.6966,12.9639 3.6006,13.3229 3.9876,13.5769 C4.8826,14.1659 5.3266,15.2249 5.1176,16.2759 C4.9076,17.3269 4.0926,18.1359 3.0396,18.3369 C2.5856,18.4239 2.5376,18.7919 2.5376,18.9459 C2.5376,19.0999 2.5856,19.4669 3.0396,19.5529 C4.0926,19.7549 4.9086,20.5649 5.1176,21.6149 C5.3266,22.6659 4.8816,23.7259 3.9876,24.3139 C3.6006,24.5679 3.6966,24.9259 3.7546,25.0679 C3.8146,25.2109 4.0096,25.5299 4.4526,25.4379 C5.5036,25.2229 6.5646,25.6569 7.1596,26.5469 C7.7546,27.4389 7.7496,28.5869 7.1486,29.4739 C6.8896,29.8559 7.1146,30.1499 7.2236,30.2589 C7.3326,30.3689 7.6246,30.5929 8.0086,30.3339 C8.8966,29.7319 10.0446,29.7289 10.9346,30.3229 C11.8266,30.9189 12.2616,31.9809 12.0446,33.0299 C11.9516,33.4829 12.2726,33.6689 12.4146,33.7279 C12.5556,33.7859 12.9136,33.8799 13.1676,33.4959 C13.6606,32.7479 14.4816,32.3149 15.3506,32.3149 M18.5376,36.9459 L18.5366,36.9459 C17.2616,36.9449 16.2046,36.0709 15.9646,34.8179 C15.8946,34.4489 15.6006,34.3519 15.4776,34.3279 C15.3566,34.3029 15.0456,34.2799 14.8396,34.5949 C14.1386,35.6599 12.8296,36.0619 11.6496,35.5759 C10.4716,35.0879 9.8286,33.8749 10.0856,32.6269 C10.1626,32.2569 9.9276,32.0559 9.8246,31.9859 C9.7196,31.9169 9.4446,31.7769 9.1316,31.9889 C8.0776,32.7049 6.7116,32.5749 5.8096,31.6739 C4.9086,30.7729 4.7786,29.4059 5.4946,28.3509 C5.7046,28.0389 5.5666,27.7629 5.4966,27.6589 C5.4266,27.5539 5.2236,27.3189 4.8566,27.3969 C3.6006,27.6559 2.3946,27.0109 1.9076,25.8339 C1.4196,24.6559 1.8226,23.3439 2.8876,22.6429 C3.2026,22.4359 3.1796,22.1279 3.1556,22.0049 C3.1306,21.8819 3.0346,21.5879 2.6636,21.5179 C1.4126,21.2779 0.5376,20.2209 0.5376,18.9459 C0.5376,17.6709 1.4126,16.6129 2.6636,16.3729 C3.0346,16.3019 3.1306,16.0089 3.1556,15.8859 C3.1796,15.7629 3.2026,15.4549 2.8876,15.2479 C1.8226,14.5469 1.4196,13.2349 1.9076,12.0569 C2.3946,10.8789 3.6106,10.2359 4.8566,10.4939 C5.2236,10.5679 5.4266,10.3359 5.4966,10.2319 C5.5666,10.1279 5.7046,9.8519 5.4946,9.5409 C4.7786,8.4849 4.9086,7.1189 5.8096,6.2169 C6.7116,5.3169 8.0776,5.1869 9.1316,5.9029 C9.4436,6.1129 9.7196,5.9749 9.8236,5.9049 C9.9276,5.8359 10.1626,5.6329 10.0856,5.2649 C9.8286,4.0159 10.4716,2.8029 11.6496,2.3149 C12.8296,1.8279 14.1386,2.2309 14.8396,3.2959 C15.0456,3.6109 15.3566,3.5859 15.4776,3.5629 C15.6006,3.5389 15.8946,3.4419 15.9646,3.0719 C16.2046,1.8209 17.2616,0.9459 18.5366,0.9459 L18.5376,0.9459 C19.8126,0.9459 20.8706,1.8199 21.1106,3.0719 C21.1806,3.4419 21.4746,3.5389 21.5976,3.5629 C21.7176,3.5859 22.0286,3.6089 22.2356,3.2959 C22.9356,2.2309 24.2486,1.8289 25.4266,2.3159 C26.6036,2.8039 27.2466,4.0169 26.9886,5.2659 C26.9126,5.6329 27.1466,5.8359 27.2506,5.9049 C27.3546,5.9749 27.6296,6.1139 27.9426,5.9019 C28.9966,5.1869 30.3626,5.3159 31.2646,6.2169 C32.1656,7.1189 32.2956,8.4849 31.5796,9.5409 C31.3696,9.8519 31.5076,10.1279 31.5786,10.2319 C31.6466,10.3359 31.8526,10.5679 32.2176,10.4939 C33.4696,10.2329 34.6796,10.8789 35.1666,12.0569 C35.6546,13.2349 35.2516,14.5469 34.1866,15.2479 C33.8716,15.4539 33.8956,15.7629 33.9196,15.8859 C33.9446,16.0089 34.0406,16.3019 34.4106,16.3729 C35.6626,16.6129 36.5376,17.6709 36.5376,18.9459 C36.5376,20.2209 35.6626,21.2779 34.4106,21.5179 C34.0406,21.5879 33.9446,21.8819 33.9196,22.0049 C33.8956,22.1279 33.8716,22.4369 34.1866,22.6429 C35.2516,23.3439 35.6546,24.6559 35.1666,25.8339 C34.6786,27.0119 33.4666,27.6549 32.2176,27.3969 C31.8526,27.3189 31.6466,27.5539 31.5786,27.6589 C31.5076,27.7629 31.3696,28.0389 31.5796,28.3509 C32.2956,29.4059 32.1656,30.7729 31.2646,31.6739 C30.3636,32.5749 28.9976,32.7059 27.9426,31.9879 C27.6286,31.7769 27.3546,31.9159 27.2496,31.9859 C27.1466,32.0559 26.9126,32.2569 26.9886,32.6259 C27.2466,33.8739 26.6036,35.0869 25.4266,35.5749 C24.2486,36.0629 22.9356,35.6609 22.2356,34.5949 C22.0286,34.2809 21.7186,34.3039 21.5976,34.3279 C21.4746,34.3519 21.1806,34.4489 21.1106,34.8189 C20.8706,36.0709 19.8126,36.9449 18.5376,36.9459" id="Fill-1" fill="#67757C" mask="url(#mask-2)"></path>
                    </g>
                    <path d="M18.5371,10.6147 C13.6031,10.6147 9.5901,14.6287 9.5901,19.5617 C9.5901,24.4957 13.6031,28.5097 18.5371,28.5097 C23.4711,28.5097 27.4841,24.4957 27.4841,19.5617 C27.4841,14.6287 23.4711,10.6147 18.5371,10.6147 M18.5371,30.5097 C12.5011,30.5097 7.5901,25.5977 7.5901,19.5617 C7.5901,13.5257 12.5011,8.6147 18.5371,8.6147 C24.5731,8.6147 29.4841,13.5257 29.4841,19.5617 C29.4841,25.5977 24.5731,30.5097 18.5371,30.5097" id="Fill-4" fill="#F01429"></path>
                    <g id="Group-8" transform="translate(0.000000, 30.054200)">
                        <mask id="mask-4" fill="white">
                            <use xlink:href="#path-3"></use>
                        </mask>
                        <g id="Clip-7"></g>
                        <polygon id="Fill-6" fill="#67757C" mask="url(#mask-4)" points="10.3359 21 7.7119 13.63 -0.0001 15.699 7.5779 0.516 9.3669 1.41 3.7739 12.616 8.9779 11.22 10.6449 15.903 16.1819 4.811 17.9709 5.704"></polygon>
                    </g>
                    <polygon id="Fill-9" fill="#67757C" points="26.627 51.0542 18.992 35.7582 20.781 34.8652 26.318 45.9572 27.985 41.2742 33.189 42.6702 27.596 31.4642 29.385 30.5702 36.963 45.7532 29.251 43.6842"></polygon>
                    <path d="M10.0225,39.3716 C9.8785,39.3716 9.7335,39.3406 9.5945,39.2756 C9.0955,39.0386 8.8825,38.4426 9.1205,37.9436 L10.6205,34.7796 C10.8565,34.2816 11.4515,34.0686 11.9525,34.3046 C12.4515,34.5406 12.6645,35.1376 12.4265,35.6366 L10.9265,38.7996 C10.7555,39.1606 10.3975,39.3716 10.0225,39.3716" id="Fill-11" fill="#67757C"></path>
                    <path d="M27.2744,39.3716 C26.8994,39.3716 26.5414,39.1606 26.3704,38.7996 L24.8704,35.6366 C24.6324,35.1376 24.8454,34.5406 25.3444,34.3046 C25.8444,34.0676 26.4404,34.2806 26.6764,34.7796 L28.1764,37.9436 C28.4144,38.4426 28.2014,39.0386 27.7024,39.2756 C27.5634,39.3406 27.4184,39.3716 27.2744,39.3716" id="Fill-13" fill="#67757C"></path>
                    <path d="M18.5371,21.2817 L20.2611,22.1877 L19.9321,20.2687 L21.3251,18.9097 L19.3991,18.6297 L18.5371,16.8837 L17.6761,18.6297 L15.7491,18.9097 L17.1421,20.2687 L16.8141,22.1877 L18.5371,21.2817 Z M22.9171,25.8437 L18.5371,23.5417 L14.1581,25.8437 L14.9941,20.9667 L11.4501,17.5127 L16.3481,16.8017 L18.5371,12.3647 L20.7271,16.8017 L25.6241,17.5127 L22.0801,20.9667 L22.9171,25.8437 Z" id="Fill-15" fill="#F01429"></path>
                </g>
            </g>
        </g>
    </g>
</svg>