<?xml version="1.0" encoding="UTF-8"?>
<svg width="50px" height="49px" viewBox="0 0 50 49" version="1.1" xmlns="http://www.w3.org/2000/svg" xmlns:xlink="http://www.w3.org/1999/xlink">
    <!-- Generator: Sketch 52.2 (67145) - http://www.bohemiancoding.com/sketch -->
    <title>Group 15</title>
    <desc>Created with Sketch.</desc>
    <defs>
        <polygon id="path-1" points="0 0.361 46.1848 0.361 46.1848 46.5458 0 46.5458"></polygon>
        <polygon id="path-3" points="0.91855 0.66075 11.259 0.66075 11.259 11 0.91855 11"></polygon>
    </defs>
    <g id="Overview" stroke="none" stroke-width="1" fill="none" fill-rule="evenodd">
        <g id="LD_Main_6" transform="translate(-726.000000, -2574.000000)">
            <g id="Group-15" transform="translate(726.000000, 2573.000000)">
                <g id="Group-3" transform="translate(0.000000, 0.639200)">
                    <mask id="mask-2" fill="white">
                        <use xlink:href="#path-1"></use>
                    </mask>
                    <g id="Clip-2"></g>
                    <path d="M23.0918,2.3608 C11.4618,2.3608 1.9998,11.8228 1.9998,23.4528 C1.9998,35.0838 11.4618,44.5458 23.0918,44.5458 C34.7228,44.5458 44.1848,35.0838 44.1848,23.4528 C44.1848,11.8228 34.7228,2.3608 23.0918,2.3608 M23.0918,46.5458 C10.3598,46.5458 -0.0002,36.1858 -0.0002,23.4528 C-0.0002,10.7198 10.3598,0.3608 23.0918,0.3608 C35.8248,0.3608 46.1848,10.7198 46.1848,23.4528 C46.1848,36.1858 35.8248,46.5458 23.0918,46.5458" id="Fill-1" fill="#67757C" mask="url(#mask-2)"></path>
                </g>
                <g id="Group-6" transform="translate(38.000000, 38.639200)">
                    <mask id="mask-4" fill="white">
                        <use xlink:href="#path-3"></use>
                    </mask>
                    <g id="Clip-5"></g>
                    <path d="M10.2588,11 C10.0028,11 9.7468,10.902 9.5518,10.707 L1.2118,2.368 C0.8208,1.978 0.8208,1.345 1.2118,0.954 C1.6028,0.563 2.2358,0.563 2.6258,0.954 L10.9658,9.293 C11.3568,9.684 11.3568,10.316 10.9658,10.707 C10.7708,10.902 10.5148,11 10.2588,11" id="Fill-4" fill="#67757C" mask="url(#mask-4)"></path>
                </g>
                <path d="M12.2158,30.7681 L23.0308,34.6791 L33.8468,30.7681 L33.8468,18.4201 L23.0308,14.0351 L12.2158,18.4201 L12.2158,30.7681 Z M23.0308,36.8061 L10.2158,32.1711 L10.2158,17.0721 L23.0308,11.8761 L35.8468,17.0721 L35.8468,32.1711 L23.0308,36.8061 Z" id="Fill-7" fill="#F01429"></path>
                <polygon id="Fill-9" fill="#F01429" points="24.0313 35.7427 22.0313 35.7427 22.0313 21.2237 34.2193 16.8767 34.8903 18.7607 24.0313 22.6347"></polygon>
                <polygon id="Fill-11" fill="#F01429" points="23.1221 22.9859 10.8851 18.6899 11.5471 16.8029 23.7841 21.0989"></polygon>
                <path d="M16.2393,23.168 L18.3133,23.972 L18.3133,19.898 L20.6393,18.968 L19.4533,18.495 L16.2393,19.832 L16.2393,23.168 Z M20.3133,26.893 L14.2393,24.537 L14.2393,18.498 L19.4373,16.335 L26.0323,18.966 L20.3133,21.252 L20.3133,26.893 Z" id="Fill-13" fill="#F01429"></path>
            </g>
        </g>
    </g>
</svg>