<?xml version="1.0" encoding="UTF-8"?>
<svg width="53px" height="47px" viewBox="0 0 53 47" version="1.1" xmlns="http://www.w3.org/2000/svg" xmlns:xlink="http://www.w3.org/1999/xlink">
    <!-- Generator: Sketch 52.2 (67145) - http://www.bohemiancoding.com/sketch -->
    <title>02</title>
    <desc>Created with Sketch.</desc>
    <g id="Overview" stroke="none" stroke-width="1" fill="none" fill-rule="evenodd">
        <g id="LD_Main_6" transform="translate(-725.000000, -2690.000000)">
            <g id="Group-18" transform="translate(712.000000, 2674.000000)">
                <g id="02" transform="translate(13.000000, 16.000000)">
                    <g id="Group" transform="translate(4.000000, 21.000000)" fill="#68757C">
                        <g>
                            <path d="M27.58,25.94 L25.58,25.94 L25.58,23.94 C25.58,22.2831458 24.2368542,20.94 22.58,20.94 C20.9231458,20.94 19.58,22.2831458 19.58,23.94 L19.58,25.94 L17.58,25.94 L17.58,23.94 C17.58,21.1785763 19.8185763,18.94 22.58,18.94 C25.3414237,18.94 27.58,21.1785763 27.58,23.94 L27.58,25.94 Z" id="Path"></path>
                            <path d="M22.57,20.87 C20.5983434,20.87 19,19.2716566 19,17.3 L19,16.72 C19.1005774,14.8189806 20.6713218,13.3291428 22.575,13.3291428 C24.4786782,13.3291428 26.0494226,14.8189806 26.15,16.72 L26.15,17.3 C26.144488,19.273273 24.5432807,20.8700077 22.57,20.87 Z M22.57,15.15 C21.7029129,15.15 21,15.8529129 21,16.72 L21,17.3 C21.0654944,18.1212965 21.7510963,18.7544014 22.575,18.7544014 C23.3989037,18.7544014 24.0845056,18.1212965 24.15,17.3 L24.15,16.72 C24.1500085,16.3018717 23.9832262,15.9010131 23.6866278,15.6062918 C23.3900293,15.3115705 22.9881198,15.1473368 22.57,15.15 Z" id="Shape" fill-rule="nonzero"></path>
                            <g>
                                <path d="M15,25.93 L13,25.93 L13,21.93 C13,19.1188706 10.7211294,16.84 7.91,16.84 C5.09887062,16.84 2.82,19.1188706 2.82,21.93 L2.82,25.93 L0.82,25.93 L0.82,21.93 C0.82,18.0143011 3.99430112,14.84 7.91,14.84 C11.8256989,14.84 15,18.0143011 15,21.93 L15,25.93 Z" id="Path"></path>
                                <path d="M8,16.78 C5.28828188,16.78 3.09,14.5817181 3.09,11.87 L3.09,6.07 L12.91,6.07 L12.91,11.87 C12.91,14.5817181 10.7117181,16.78 8,16.78 Z M5.11,8.07 L5.11,11.87 C5.10999998,12.9096429 5.66464284,13.8703125 6.56499998,14.390134 C7.46535712,14.9099554 8.57464288,14.9099554 9.47500002,14.390134 C10.3753572,13.8703125 10.93,12.9096429 10.93,11.87 L10.93,8.07 L5.11,8.07 Z" id="Shape" fill-rule="nonzero"></path>
                                <path d="M15.79,12.31 L11.85,12.31 L11.85,10.31 L13.79,10.31 L13.79,8 C13.79,4.85197693 11.2380231,2.3 8.09,2.3 C4.94197693,2.3 2.39,4.85197693 2.39,8 L2.39,10.28 L4.39,10.28 L4.39,12.28 L0.39,12.28 L0.39,8 C0.389999942,5.24905492 1.85761164,2.70707681 4.23999995,1.33160426 C6.62238827,-0.0438683016 9.55761173,-0.0438683016 11.94,1.33160426 C14.3223884,2.70707681 15.7900001,5.24905492 15.79,8 L15.79,12.31 Z" id="Path"></path>
                            </g>
                        </g>
                        <g transform="translate(29.000000, 1.000000)">
                            <path d="M15.51,24.93 L13.51,24.93 L13.51,20.93 C13.51,18.1188706 11.2311294,15.84 8.42,15.84 C5.60887062,15.84 3.33,18.1188706 3.33,20.93 L3.33,24.93 L1.33,24.93 L1.33,20.93 C1.33,17.0143011 4.50430112,13.84 8.42,13.84 C12.3356989,13.84 15.51,17.0143011 15.51,20.93 L15.51,24.93 Z" id="Path"></path>
                            <path d="M8.51,15.78 C5.80056391,15.7744986 3.60550141,13.5794361 3.6,10.87 L3.6,5.07 L13.43,5.07 L13.43,10.87 C13.4244851,13.5833349 11.2233405,15.7800056 8.51,15.78 Z M5.6,7.07 L5.6,10.87 C5.69045317,12.4136787 6.9686735,13.6191931 8.515,13.6191931 C10.0613265,13.6191931 11.3395468,12.4136787 11.43,10.87 L11.43,7.07 L5.6,7.07 Z" id="Shape" fill-rule="nonzero"></path>
                            <path d="M12.35,11.31 L12.35,9.31 C13.4175393,9.31001418 14.2844972,8.44752511 14.29,7.38 L14.29,2.21 L5.47,2.21 C4.0395825,2.21 2.88,3.3695825 2.88,4.8 L2.88,7.38 C2.88550278,8.44752511 3.75246071,9.31001418 4.82,9.31 L4.92,9.31 L4.92,11.31 L4.82,11.31 C2.64789735,11.310007 0.885512951,9.55209565 0.88,7.38 L0.88,4.8 C0.885499923,2.26729464 2.93729464,0.215499923 5.47,0.21 L16.29,0.21 L16.29,7.38 C16.284487,9.55209565 14.5221026,11.310007 12.35,11.31 Z" id="Path"></path>
                        </g>
                    </g>
                    <path d="M49.24,17.31 C48.8087102,17.30051 48.3850157,17.1945864 48,17 L26,6.27 L4.05,17 C3.1821879,17.4056994 2.16748207,17.341349 1.35787329,16.8292715 C0.548264499,16.3171939 0.0553060355,15.4279466 0.05,14.47 C0.0661769689,13.4277203 0.654020583,12.4787179 1.58,12 L26,0 L50.48,12 C51.4389103,12.4794056 52.0461399,13.4579347 52.05,14.53 C52.0545437,15.5017482 51.5549218,16.4063667 50.73,16.92 C50.2783408,17.1838051 49.7629852,17.3186969 49.24,17.31 Z M26,4 L48.88,15.22 C49.1249671,15.3590892 49.4250329,15.3590892 49.67,15.22 C49.9120313,15.0755516 50.0573055,14.8117642 50.05,14.53 C50.0470604,14.2220221 49.8738241,13.9409943 49.6,13.8 L26,2.23 L2.46,13.76 C2.18068916,13.8964673 2.00256398,14.1791442 2,14.49 C1.99847226,14.7710636 2.14275755,15.0328288 2.38121698,15.1816111 C2.61967641,15.3303935 2.91821974,15.3449232 3.17,15.22 L26,4 Z" id="Shape" fill="#F01429" fill-rule="nonzero"></path>
                    <rect id="Rectangle" fill="#F01429" x="5.43" y="15.41" width="2" height="3.94"></rect>
                    <rect id="Rectangle" fill="#F01429" x="44.99" y="15.41" width="2" height="3.94"></rect>
                    <path d="M26.54,24.75 C22.9859106,24.7389624 20.1126611,21.850807 20.1200138,18.2967081 C20.1273665,14.7426091 23.0125413,11.8663667 26.566646,11.8700345 C30.1207506,11.8737023 32.9999829,14.7558935 33,18.31 C32.9973499,20.020647 32.3152554,21.6601774 31.1037699,22.8679121 C29.8922845,24.0756468 28.250647,24.7526542 26.54,24.75 Z M26.54,13.87 C24.0904895,13.8810339 22.1126723,15.873749 22.12002,18.3232733 C22.1273677,20.7727976 24.1171041,22.7536114 26.5666367,22.74995 C29.0161692,22.7462886 30.9999751,20.7595353 31,18.31 C31.000012,17.1289654 30.5294832,15.9965924 29.692491,15.1633536 C28.8554989,14.3301148 27.7210227,13.86468 26.54,13.87 Z" id="Shape" fill="#F01429" fill-rule="nonzero"></path>
                    <rect id="Rectangle" fill="#F01429" x="25.54" y="13.63" width="2" height="9.54"></rect>
                    <rect id="Rectangle" fill="#F01429" x="21.77" y="17.39" width="9.54" height="2"></rect>
                </g>
            </g>
        </g>
    </g>
</svg>