<?xml version="1.0" encoding="UTF-8"?>
<svg width="53px" height="47px" viewBox="0 0 53 47" version="1.1" xmlns="http://www.w3.org/2000/svg" xmlns:xlink="http://www.w3.org/1999/xlink">
    <!-- Generator: Sketch 52.2 (67145) - http://www.bohemiancoding.com/sketch -->
    <title>Group 15</title>
    <desc>Created with Sketch.</desc>
    <g id="Overview" stroke="none" stroke-width="1" fill="none" fill-rule="evenodd">
        <g id="LD_Main_6" transform="translate(-1042.000000, -2576.000000)" stroke-width="2">
            <g id="Group-15" transform="translate(1042.000000, 2577.000000)">
                <path d="M50.2125,12.1785 C50.2125,16.1545 46.9885,19.3775 43.0135,19.3775 C39.0365,19.3775 35.8135,16.1545 35.8135,12.1785 C35.8135,8.2025 39.0365,4.9785 43.0135,4.9785 C46.9885,4.9785 50.2125,8.2025 50.2125,12.1785 Z" id="Stroke-1" stroke="#68757C"></path>
                <path d="M14.6715,20.4105 C16.3715,20.1275 18.0725,19.8435 19.7745,19.5595 C20.2575,20.9345 21.1985,23.0235 23.0555,25.0285 C26.3055,28.5385 30.2635,29.5275 31.8035,29.8275 L28.7055,44.6515 L47.6605,44.6515 L51.1095,31.6435 C52.3145,27.1055 48.8925,22.6585 44.1975,22.6585 L39.2155,26.9725 L35.6315,22.2935 C34.7435,22.4305 33.0225,22.5735 31.0145,21.9295 C28.8835,21.2455 27.5175,20.0255 26.8825,19.3775 C27.0275,19.3595 28.4605,19.1515 29.0695,17.9195 C29.3345,17.3845 29.3365,16.8715 29.3135,16.5835 C30.7255,16.4575 31.9595,15.6485 32.4725,14.4565 C33.1715,12.8285 32.4345,10.6955 30.5885,9.6575 C29.8515,8.7445 28.6365,7.4995 26.8215,6.6805 C24.7685,5.7535 23.5135,6.0795 21.4145,5.2835 C20.2155,4.8275 18.5625,3.9365 16.8585,2.0025" id="Stroke-3" stroke="#68757C"></path>
                <path d="M9.191,2.9989 C10.708,0.8339 12.532,-0.2411 14.2,0.0459 C17.415,0.5989 19.198,6.0619 18.15,12.1459 C17.102,18.2309 13.595,22.7829 10.38,22.2289 C8.759,21.9499 7.427,20.4089 6.706,17.9759" id="Stroke-5" stroke="#F01429"></path>
                <path d="M15.3189,8.118 L12.5809,8.187 C11.3399,8.218 10.2629,9.048 9.9169,10.238 C9.4619,11.798 10.3999,13.421 11.9769,13.806 L13.9019,14.274" id="Stroke-7" stroke="#F01429"></path>
                <path d="M6.4898,6.012 L2.2368,2.731" id="Stroke-9" stroke="#F01429"></path>
                <path d="M5.4508,10.1102 L0.1158,9.4872" id="Stroke-11" stroke="#F01429"></path>
                <path d="M5.8912,14.6498 L0.8912,16.6128" id="Stroke-13" stroke="#F01429"></path>
            </g>
        </g>
    </g>
</svg>