<?xml version="1.0" encoding="UTF-8"?>
<svg width="44px" height="44px" viewBox="0 0 44 44" version="1.1" xmlns="http://www.w3.org/2000/svg" xmlns:xlink="http://www.w3.org/1999/xlink">
    <!-- Generator: Sketch 52.2 (67145) - http://www.bohemiancoding.com/sketch -->
    <title>01</title>
    <desc>Created with Sketch.</desc>
    <g id="Overview" stroke="none" stroke-width="1" fill="none" fill-rule="evenodd">
        <g id="LD_Main_6" transform="translate(-1051.000000, -2691.000000)">
            <g id="01" transform="translate(1051.000000, 2691.000000)">
                <path d="M10.62,28.06 C7.56814799,28.0544962 5.0955038,25.581852 5.09,22.53 L5.09,18 C5.21607536,15.0345475 7.65686864,12.6953189 10.625,12.6953189 C13.5931314,12.6953189 16.0339246,15.0345475 16.16,18 L16.16,22.5 C16.1653169,23.9727616 15.583988,25.3870257 14.5444596,26.4303069 C13.5049313,27.4735881 12.0927711,28.0600096 10.62,28.06 Z M10.62,14.5 C8.68432428,14.5053445 7.11186475,16.0644404 7.09,18 L7.09,22.5 C7.18999188,24.3793425 8.74299934,25.8519176 10.625,25.8519176 C12.5070007,25.8519176 14.0600081,24.3793425 14.16,22.5 L14.16,18 C14.1380839,16.0605508 12.559573,14.4998762 10.62,14.5 Z" id="Shape" fill="#68757C" fill-rule="nonzero"></path>
                <path d="M19.12,42.94 L0,42.94 L0,34.53 C-4.73447626e-16,30.6640068 3.13400675,27.53 7,27.53 L8,27.53 L8,29.53 L7,29.53 C4.23857625,29.53 2,31.7685763 2,34.53 L2,40.94 L17.12,40.94 L17.12,33.19 L26.58,33.19 C27.5906811,33.19 28.41,32.3706811 28.41,31.36 C28.41,30.3493189 27.5906811,29.53 26.58,29.53 L13.58,29.53 L13.58,27.53 L26.58,27.53 C28.6952506,27.53 30.41,29.2447494 30.41,31.36 C30.41,33.4752506 28.6952506,35.19 26.58,35.19 L19.12,35.19 L19.12,42.94 Z" id="Path" fill="#68757C"></path>
                <g id="Group" transform="translate(23.000000, 29.000000)">
                    <path d="M1.22,0.31 L1.22,4.47" id="Path" fill="#EFF1F1"></path>
                    <rect id="Rectangle" fill="#68757C" x="0.22" y="0.31" width="2" height="4.16"></rect>
                </g>
                <path d="M10.84,32.39 C8.89271468,32.3845069 7.31549308,30.8072853 7.31,28.86 L7.31,26.93 L9.31,26.93 L9.31,28.86 C9.37460974,29.6598321 10.0425626,30.276004 10.845,30.276004 C11.6474374,30.276004 12.3153903,29.6598321 12.38,28.86 L12.38,26.31 L14.38,26.31 L14.38,28.86 C14.3744882,30.8111816 12.7911894,32.3900078 10.84,32.39 Z" id="Path" fill="#68757C"></path>
                <g id="Group" transform="translate(4.000000, 36.000000)">
                    <path d="M1.72,5.27 L1.72,0.52" id="Path" fill="#EFF1F1"></path>
                    <rect id="Rectangle" fill="#68757C" x="0.72" y="0.52" width="2" height="4.75"></rect>
                </g>
                <path d="M6.59,20.88 L5.8,19 C6.42119775,18.7314836 7.01133686,18.3961773 7.56,18 C7.94698169,17.7335354 8.31152942,17.4358771 8.65,17.11 L9.27,16.51 L9.95,17.04 C10.5589057,17.508225 11.232609,17.8854989 11.95,18.16 C12.8462832,18.503421 13.7913494,18.7025599 14.75,18.75 L14.64,20.75 C13.4727696,20.6890797 12.322226,20.4461497 11.23,20.03 C10.589215,19.7847159 9.97587167,19.4730168 9.4,19.1 C9.17,19.29 8.93,19.47 8.69,19.64 C8.03494581,20.1251158 7.33114946,20.5406907 6.59,20.88 Z" id="Path" fill="#68757C"></path>
                <path d="M41.09,32.06 L32.22,32.06 L32.22,30.06 L41.09,30.06 L41.09,2 L12.16,2 L12.16,10.94 L10.16,10.94 L10.16,2 C10.16,0.8954305 11.0554305,2.02906125e-16 12.16,0 L41.09,0 C42.1945695,6.76353751e-17 43.09,0.8954305 43.09,2 L43.09,30.06 C43.09,30.590433 42.8792863,31.0991408 42.5042136,31.4742136 C42.1291408,31.8492863 41.620433,32.06 41.09,32.06 Z" id="Path" fill="#68757C"></path>
                <rect id="Rectangle" fill="#68757C" x="36.28" y="31.78" width="2" height="5.38"></rect>
                <path d="M37.28,43.28 C35.8230271,43.2799944 34.5097083,42.4017966 33.9530877,41.0553407 C33.3964671,39.7088848 33.7063051,38.1596791 34.7379724,37.1308776 C35.7696397,36.1020761 37.3197012,35.7965486 38.6646036,36.3569124 C40.0095059,36.9172761 40.8840471,38.2330327 40.88,39.69 C40.8800037,40.6438623 40.5004002,41.5585116 39.8249803,42.2320554 C39.1495603,42.9055992 38.2338586,43.282657 37.28,43.28 Z M37.28,38.09 C36.3963444,38.09 35.68,38.8063444 35.68,39.69 C35.68,40.5736556 36.3963444,41.29 37.28,41.29 C38.1636556,41.29 38.88,40.5736556 38.88,39.69 C38.88,38.8063444 38.1636556,38.09 37.28,38.09 Z" id="Shape" fill="#68757C" fill-rule="nonzero"></path>
                <path d="M30.31,18.9 L18.22,18.9 L18.22,6.81 L30.31,6.81 L30.31,18.9 Z M20.22,16.9 L28.31,16.9 L28.31,8.81 L20.22,8.81 L20.22,16.9 Z" id="Shape" fill="#F01429" fill-rule="nonzero"></path>
                <path d="M29.59,24 C26.2265859,24 23.5,21.2734141 23.5,17.91 C23.5,14.5465859 26.2265859,11.82 29.59,11.82 C32.9534141,11.82 35.68,14.5465859 35.68,17.91 C35.68,19.5251684 35.0383768,21.0741838 33.8962803,22.2162803 C32.7541838,23.3583768 31.2051684,24 29.59,24 Z M29.59,13.83 C27.9348405,13.8300049 26.4428493,14.8275869 25.8103854,16.3571432 C25.1779215,17.8866995 25.5296813,19.6466633 26.7014875,20.8156044 C27.8732937,21.9845456 29.6341133,22.3319959 31.1621168,21.6957896 C32.6901202,21.0595833 33.6840468,19.5651546 33.68,17.91 C33.6580605,15.6667919 31.8333154,13.8598927 29.59,13.86 L29.59,13.83 Z" id="Shape" fill="#F01429" fill-rule="nonzero"></path>
            </g>
        </g>
    </g>
</svg>