<svg xmlns="http://www.w3.org/2000/svg" width="209" height="218" viewBox="0 0 209 218">
    <g fill="#FFF" fill-rule="nonzero">
        <path d="M178.488 155.211c-13.029-11.522-26.25-18.501-39.12-6.997l-7.683 6.954c-5.622 5.047-16.076 28.631-56.49-19.442C34.787 87.714 58.832 80.24 64.463 75.235l7.726-6.962c12.8-11.531 7.97-26.047-1.263-40.99l-5.571-9.05C56.08 3.326 45.98-6.465 33.146 5.05l-6.935 6.266C20.54 15.588 4.683 29.477.836 55.863c-4.629 31.66 9.974 67.915 43.428 107.694 33.413 39.797 66.127 59.787 97.116 59.439 25.754-.288 41.307-14.577 46.172-19.773l6.96-6.274c12.802-11.505 4.848-23.219-8.189-34.767l-7.835-6.97zM143.475 24.271l.402-23.523-42.63 40.417 41.225 41.914.411-24.111c29.948.534 50.75 10.318 65.373 31.168-5.488-29.511-22.955-59.235-64.78-65.865z"/>
    </g>
</svg>
