<svg xmlns="http://www.w3.org/2000/svg" width="21" height="18" viewBox="0 0 21 18">
    <g fill="#FFFFFF" fill-rule="nonzero">
        <path d="M17.735 6.244c.347-.006.678.14.902.397.224.257.318.599.256.93l-1.448 7.527a1.15 1.15 0 0 1-1.158.922H3.921a1.15 1.15 0 0 1-1.158-.922L1.316 7.582a1.102 1.102 0 0 1 .25-.937c.225-.26.558-.407.908-.401h15.26zm0-1.125H2.474a2.345 2.345 0 0 0-1.81.798 2.204 2.204 0 0 0-.506 1.868l1.447 7.526c.209 1.078 1.187 1.853 2.316 1.834h12.366c1.13.019 2.107-.756 2.316-1.834l1.448-7.526a2.204 2.204 0 0 0-.506-1.868 2.345 2.345 0 0 0-1.81-.798z"/>
        <path d="M4.797 5.868a.59.59 0 0 1-.802.159.553.553 0 0 1-.163-.78L7.236.252A.59.59 0 0 1 8.04.093c.266.172.34.521.163.78L4.797 5.868zM16.307 5.247a.553.553 0 0 1-.163.78.59.59 0 0 1-.803-.159L11.937.873a.553.553 0 0 1 .163-.78.59.59 0 0 1 .803.159l3.404 4.995zM4.894 8.19c0-.31.259-.562.579-.562a.57.57 0 0 1 .579.562v5.738a.57.57 0 0 1-.58.562.57.57 0 0 1-.578-.563V8.19zM9.525 8.19c0-.31.26-.562.58-.562a.57.57 0 0 1 .578.562v5.738a.57.57 0 0 1-.579.562.57.57 0 0 1-.579-.563V8.19zM14.157 8.19c0-.31.259-.562.579-.562a.57.57 0 0 1 .579.562v5.738a.57.57 0 0 1-.58.562.57.57 0 0 1-.578-.563V8.19z"/>
    </g>
</svg>
