<svg xmlns="http://www.w3.org/2000/svg" width="48" height="45" viewBox="0 0 48 45">
    <g fill="none" fill-rule="evenodd">
        <path fill="#68757C" d="M46.29 44.78L23.67 26.46 2.05 44.03.79 42.48l22.87-18.59 23.89 19.34zM38.556 13.893l1.223-1.583 7.104 5.493-1.223 1.582zM30.81 7.83l-6.85-5.3-6.77 5.26-1.23-1.58 8-6.21 8.07 6.25zM1.163 17.802l7.064-5.496 1.228 1.579-7.064 5.495z"/>
        <path fill="#F01429" d="M40.33 22.76h-2V7.84H9.83v14.92h-2V7.84a2 2 0 0 1 2-2h28.5a2 2 0 0 1 2 2v14.92z"/>
        <path fill="#68757C" d="M47.92 45H0V19.13a2 2 0 0 1 3.11-1.66l16 10.71L18 29.84 2 19.13V43h43.92V19.17L30.23 30l-1.13-1.65 15.68-10.83a2 2 0 0 1 3.14 1.65V45z"/>
        <path fill="#F01429" d="M15.38 12.1h17.38v2H15.38zM15.38 18.1h17.38v2H15.38z"/>
    </g>
</svg>
