<svg xmlns="http://www.w3.org/2000/svg" width="49" height="49" viewBox="0 0 49 49">
    <g fill="none" fill-rule="evenodd">
        <g fill="#F01429">
            <path d="M20.01 45.384h-2.382C12.05 45.376 7.53 40.842 7.523 35.247h2.631c.008 4.137 3.35 7.49 7.474 7.497h2.381v2.64z"/>
            <path fill-rule="nonzero" d="M28.154 49h-5.869a4.441 4.441 0 0 1-4.434-4.448v-.99a4.441 4.441 0 0 1 4.434-4.448h5.869a4.441 4.441 0 0 1 4.434 4.448v.99A4.441 4.441 0 0 1 28.154 49zm-5.869-7.246c-.995 0-1.802.81-1.802 1.808v.99c0 .999.807 1.808 1.802 1.808h5.869a1.8 1.8 0 0 0 1.274-.53c.338-.338.528-.798.528-1.278v-.99c0-.998-.807-1.808-1.802-1.808h-5.869z"/>
        </g>
        <path fill="#68757C" fill-rule="nonzero" d="M14.519 36.296H8.162C3.654 36.296 0 32.53 0 27.885v-2.233c.007-4.642 3.657-8.404 8.162-8.411h6.357v19.055zM8.162 19.898c-3.084 0-5.583 2.577-5.583 5.754v2.233c0 3.178 2.5 5.754 5.583 5.754h3.778v-13.74H8.162z"/>
        <path fill="#68757C" d="M43.556 18.148h-2.64C40.673 9.53 33.8 2.673 25.408 2.673S10.143 9.529 9.898 18.148H7.259C7.524 8.047 15.571 0 25.407 0S43.29 8.047 43.556 18.148z"/>
        <path fill="#68757C" fill-rule="nonzero" d="M40.838 36.296h-6.357V17.241h6.357c4.505.007 8.155 3.769 8.162 8.411v2.233c0 4.645-3.654 8.411-8.162 8.411zM37.06 33.64h3.778c3.084 0 5.583-2.576 5.583-5.754v-2.233c0-3.177-2.5-5.754-5.583-5.754H37.06v13.74z"/>
    </g>
</svg>
