<svg xmlns="http://www.w3.org/2000/svg" width="42" height="43" viewBox="0 0 42 43">
    <g fill="none" fill-rule="evenodd">
        <g fill="#FFF">
            <path d="M36.27 34.166c-.009 0-.009.008 0 0-.345.359-.699.684-1.08 1.043-.574.531-1.158 1.087-1.707 1.712-.894.924-1.947 1.36-3.327 1.36-.133 0-.274 0-.407-.008-2.628-.163-5.07-1.155-6.902-2.002a39.145 39.145 0 0 1-13.06-9.892c-3.017-3.517-5.034-6.769-6.37-10.26-.823-2.131-1.124-3.791-.992-5.357.089-1.001.487-1.831 1.222-2.541l3.017-2.918c.433-.394.893-.608 1.345-.608.557 0 1.008.325 1.292.6l.026.025c.54.488 1.053.992 1.593 1.531.274.274.557.548.84.83l2.416 2.337c.938.907.938 1.745 0 2.652-.257.248-.504.497-.76.736a45.52 45.52 0 0 1-2.222 2.088c-.018.017-.035.026-.044.043-.761.736-.62 1.455-.46 1.942l.026.077c.629 1.472 1.513 2.858 2.858 4.51l.01.008c2.441 2.91 5.016 5.177 7.856 6.915.363.222.735.402 1.089.573.318.154.62.3.876.453.035.017.07.043.106.06.3.146.584.214.876.214.734 0 1.194-.445 1.345-.59l3.026-2.927c.3-.29.779-.641 1.336-.641.549 0 1 .333 1.274.624l.018.017 4.875 4.715c.912.873.912 1.771.01 2.679zm-3.167-9.011c-.859-.864-1.894-1.326-2.991-1.326-1.088 0-2.133.453-3.026 1.317l-2.796 2.696c-.23-.12-.46-.231-.682-.342-.318-.154-.62-.3-.876-.454-2.619-1.609-4.999-3.705-7.282-6.418-1.106-1.352-1.85-2.49-2.389-3.645.726-.642 1.398-1.31 2.053-1.951.248-.24.495-.488.743-.727 1.858-1.797 1.858-4.125 0-5.922l-2.415-2.336c-.275-.265-.558-.539-.823-.813a41.142 41.142 0 0 0-1.664-1.591c-.858-.822-1.884-1.258-2.964-1.258s-2.124.436-3.008 1.258c-.01.008-.01.008-.018.017L1.956 6.595C.824 7.69.178 9.025.036 10.574c-.212 2.498.549 4.826 1.133 6.35 1.433 3.738 3.575 7.204 6.769 10.918 3.876 4.475 8.539 8.01 13.865 10.5 2.035.932 4.752 2.036 7.787 2.224.186.009.38.017.557.017 2.044 0 3.76-.71 5.106-2.122.009-.017.026-.026.035-.043.46-.539.991-1.026 1.549-1.548.38-.351.77-.72 1.15-1.104.876-.882 1.336-1.909 1.336-2.961 0-1.061-.469-2.08-1.363-2.935l-4.857-4.715zM22.021 9.188c2.409.36 4.596 1.373 6.343 2.925 1.746 1.553 2.877 3.498 3.29 5.639.101.539.625.915 1.223.915.073 0 .138-.009.211-.017.68-.098 1.13-.67 1.02-1.274-.496-2.59-1.875-4.952-3.98-6.823-2.104-1.871-4.76-3.097-7.675-3.538-.68-.098-1.314.302-1.433.899-.12.596.321 1.176 1.001 1.274M41.911 17.356a21.199 21.199 0 0 0-5.797-11.408C33.041 2.812 29.18.772 24.934.033c-.593-.108-1.154.307-1.26.913-.097.614.302 1.186.903 1.294 3.789.655 7.245 2.489 9.993 5.285a18.927 18.927 0 0 1 5.179 10.196c.09.547.553.93 1.081.93.065 0 .122-.01.187-.018.594-.09 1-.672.894-1.277"/>
        </g>
        <path fill="#78838A" d="M36.27 36.499c-.009 0-.009.008 0 0-.345.36-.699.684-1.08 1.044-.574.53-1.158 1.087-1.707 1.711-.894.924-1.947 1.36-3.327 1.36-.133 0-.274 0-.407-.008-2.628-.162-5.07-1.155-6.902-2.002a39.145 39.145 0 0 1-13.06-9.892c-3.017-3.517-5.034-6.769-6.37-10.26-.823-2.13-1.124-3.79-.992-5.357.089-1 .487-1.83 1.222-2.541l3.017-2.918c.433-.394.893-.608 1.345-.608.557 0 1.008.326 1.292.6l.026.025c.54.488 1.053.993 1.593 1.532.274.274.557.547.84.83l2.416 2.336c.938.907.938 1.745 0 2.653-.257.248-.504.496-.76.735a45.52 45.52 0 0 1-2.222 2.088c-.018.017-.035.026-.044.043-.761.736-.62 1.455-.46 1.943l.026.077c.629 1.471 1.513 2.858 2.858 4.51l.01.008c2.441 2.91 5.016 5.177 7.856 6.914.363.222.735.402 1.089.573.318.154.62.3.876.454.035.017.07.042.106.06.3.145.584.214.876.214.734 0 1.194-.445 1.345-.59l3.026-2.927c.3-.291.779-.642 1.336-.642.549 0 1 .334 1.274.624l.018.018 4.875 4.714c.912.873.912 1.772.01 2.679zm-3.167-9.01c-.859-.865-1.894-1.327-2.991-1.327-1.088 0-2.133.453-3.026 1.318l-2.796 2.695c-.23-.12-.46-.23-.682-.342-.318-.154-.62-.3-.876-.454-2.619-1.608-4.999-3.705-7.282-6.417-1.106-1.352-1.85-2.49-2.389-3.646.726-.641 1.398-1.309 2.053-1.95.248-.24.495-.488.743-.728 1.858-1.797 1.858-4.125 0-5.922L13.442 8.38c-.275-.265-.558-.539-.823-.813a41.142 41.142 0 0 0-1.664-1.591c-.858-.822-1.884-1.258-2.964-1.258s-2.124.436-3.008 1.258c-.01.008-.01.008-.018.017L1.956 8.928c-1.132 1.095-1.778 2.43-1.92 3.98-.212 2.498.549 4.825 1.133 6.348 1.433 3.74 3.575 7.205 6.769 10.92 3.876 4.475 8.539 8.009 13.865 10.499 2.035.932 4.752 2.036 7.787 2.225.186.008.38.017.557.017 2.044 0 3.76-.71 5.106-2.123.009-.017.026-.025.035-.042.46-.54.991-1.027 1.549-1.549.38-.351.77-.719 1.15-1.104.876-.881 1.336-1.908 1.336-2.96 0-1.062-.469-2.08-1.363-2.936l-4.857-4.715z"/>
        <path fill="#F01429" d="M22.021 11.522c2.409.36 4.596 1.372 6.343 2.925 1.746 1.552 2.877 3.497 3.29 5.638.101.54.625.915 1.223.915.073 0 .138-.008.211-.016.68-.098 1.13-.67 1.02-1.275-.496-2.59-1.875-4.952-3.98-6.823-2.104-1.871-4.76-3.097-7.675-3.538-.68-.098-1.314.302-1.433.899-.12.596.321 1.177 1.001 1.275M41.911 19.69a21.199 21.199 0 0 0-5.797-11.408c-3.073-3.136-6.935-5.177-11.18-5.915-.593-.108-1.154.306-1.26.912-.097.614.302 1.186.903 1.294 3.789.656 7.245 2.49 9.993 5.285a18.927 18.927 0 0 1 5.179 10.196c.09.548.553.93 1.081.93.065 0 .122-.009.187-.017.594-.091 1-.672.894-1.278"/>
    </g>
</svg>
