<svg xmlns="http://www.w3.org/2000/svg" width="16" height="16" viewBox="0 0 16 16">
    <g fill="none" fill-rule="evenodd">
        <path fill="#F01429" d="M5.848 6.751a.469.469 0 0 0 0 .656l2.404 2.456a.438.438 0 0 0 .638 0l2.405-2.456a.469.469 0 0 0 0-.656.445.445 0 0 0-.641 0l-1.63 1.664V.463A.456.456 0 0 0 8.572 0a.456.456 0 0 0-.453.463v7.952L6.489 6.751a.445.445 0 0 0-.641 0z"/>
        <path fill="#B3BABD" fill-rule="nonzero" d="M15.982 10.157l-1.7-5.79a.475.475 0 0 0-.268-.295l-.047-.02a.524.524 0 0 0-.202-.042h-3.063c-.272 0-.489.205-.489.46s.217.46.489.46h2.734l1.436 4.896h-3.798c-.271 0-.488.205-.488.46v.415c0 .61-.525 1.104-1.172 1.104h-2.98c-.647 0-1.172-.494-1.172-1.104v-.415c0-.255-.217-.46-.488-.46h-3.65L2.569 4.92h2.734c.271 0 .488-.204.488-.46 0-.255-.217-.459-.488-.459H2.235a.524.524 0 0 0-.202.04l-.047.021a.465.465 0 0 0-.268.297l-1.7 5.788A.479.479 0 0 0 0 10.27v2.414C0 14.512 1.58 16 3.523 16h8.954C14.42 16 16 14.512 16 12.683V10.28a.337.337 0 0 0-.018-.122zm-.958 2.526c0 1.322-1.143 2.398-2.547 2.398H3.523c-1.404 0-2.547-1.076-2.547-2.398v-1.937h3.317c.025 1.093.98 1.975 2.148 1.975h2.98c1.169 0 2.123-.882 2.149-1.975h3.46v1.937h-.006z"/>
    </g>
</svg>
