<?xml version="1.0" encoding="UTF-8"?>
<svg width="46px" height="34px" viewBox="0 0 46 34" version="1.1" xmlns="http://www.w3.org/2000/svg" xmlns:xlink="http://www.w3.org/1999/xlink">
    <!-- Generator: Sketch 52.2 (67145) - http://www.bohemiancoding.com/sketch -->
    <title>iconfinder_eye_226579</title>
    <desc>Created with Sketch.</desc>
    <g id="Symbols" stroke="none" stroke-width="1" fill="none" fill-rule="evenodd">
        <g id="Icons-/-Eye" fill="#FFFFFF" fill-rule="nonzero">
            <g id="iconfinder_eye_226579">
                <path d="M23,3.77777778 C33.134375,3.77777778 39.5322083,13.2212778 41.6865417,17 C39.528375,20.7853333 33.1319792,30.2222222 23,30.2222222 C12.8670625,30.2222222 6.4701875,20.8335 4.3139375,17.0703611 C6.46875,13.2699167 12.8670625,3.77777778 23,3.77777778 Z M23,0 C7.66666667,0 0,17.0783889 0,17.0783889 C0,17.0783889 7.66666667,34 23,34 C38.3333333,34 46,17 46,17 C46,17 38.3333333,0 23,0 Z" id="Shape"></path>
                <path d="M23.5,13.75 C25.5676562,13.75 27.25,15.4323437 27.25,17.5 C27.25,19.5676562 25.5676562,21.25 23.5,21.25 C21.4323438,21.25 19.75,19.5676562 19.75,17.5 C19.75,15.4323437 21.4323438,13.75 23.5,13.75 Z M23.5,10 C19.358125,10 16,13.358125 16,17.5 C16,21.6423438 19.358125,25 23.5,25 C27.6423438,25 31,21.6423438 31,17.5 C31,13.358125 27.6423438,10 23.5,10 Z" id="Shape"></path>
            </g>
        </g>
    </g>
</svg>