<svg xmlns="http://www.w3.org/2000/svg" width="166" height="41" viewBox="0 0 166 41">
    <g fill="#FF0F25" fill-rule="evenodd">
        <path d="M0 1v39h27V28.3H11.515V1z"/>
        <path d="M27.485 13.227h5.066c4.31 0 7.815 3.492 7.815 7.783s-3.505 7.782-7.815 7.782h-1.02v11.672h1.02c10.774 0 19.538-8.727 19.538-19.454S43.325 1.556 32.55 1.556H15.76v23.201h11.724v-11.53zM83.307 10.015c.627-.625 1.442-.935 2.448-.935 1.005 0 1.823.31 2.449.935.625.623.94 1.463.94 2.521 0 1.059-.315 1.9-.94 2.524-.626.624-1.444.935-2.449.935-1.006 0-1.821-.311-2.448-.935-.627-.624-.938-1.465-.938-2.524 0-1.058.311-1.898.938-2.521m1.595 10.004c1.82 0 3.234-.575 4.242-1.729v1.333h4.268V5.452h-4.268v1.332c-1.008-1.153-2.422-1.73-4.242-1.73-1.88 0-3.483.722-4.81 2.169-1.33 1.445-1.994 3.216-1.994 5.313 0 2.098.664 3.87 1.994 5.315 1.327 1.444 2.93 2.168 4.81 2.168M69.261 5.622h2.383V19.62h4.294V1.555h-9.55l-7.325 18.064h4.52zM161.513 12.618v7.001h4.34V5.451h-3.978l-5.618 7.03V5.45h-4.341V19.62h3.979zM154.436 3.743h8.912V.435h-8.912zM135.747 13.14h2.586c.915 0 1.494.575 1.494 1.364 0 .788-.579 1.365-1.494 1.365h-2.586V13.14zm8.018 1.382c0-3.057-2.146-5.097-5.61-5.097h-2.405V5.451h-4.294V19.62h6.7c3.463 0 5.61-2.04 5.61-5.097zM84.171 35.76c-.621-.619-.93-1.415-.93-2.39 0-.974.309-1.771.93-2.39.622-.618 1.393-.927 2.316-.927.922 0 1.694.31 2.314.927.621.619.933 1.416.933 2.39 0 .975-.312 1.771-.933 2.39-.62.617-1.392.926-2.314.926-.923 0-1.694-.31-2.316-.927m7.624 2.881c1.45-1.433 2.172-3.19 2.172-5.27 0-2.08-.723-3.837-2.172-5.27-1.45-1.433-3.22-2.15-5.308-2.15-2.09 0-3.858.717-5.307 2.15-1.45 1.433-2.173 3.19-2.173 5.27 0 2.08.723 3.837 2.173 5.27 1.45 1.433 3.218 2.15 5.307 2.15 2.089 0 3.858-.717 5.308-2.15M100.356 33.148l3.357 4.928h.539l3.355-4.928v7.31h4.317V26.291h-4.317l-3.625 5.354-3.626-5.354H96.04v14.165h4.315zM106.873 15.6l-.696.005h-3.818l.001-.004h-.338l2.468-6.076h2.383V15.6zm6.287.005h-1.992V5.457h-9.555l-4.136 10.148h-2.173v4.014h17.856v-4.014zM145.13 19.62h4.293V5.456h-4.294zM71.646 36.382H65.24l4.027-9.918h2.38v9.918zm6.504 0h-2.21V22.396H66.39l-5.67 13.986h-2.41v4.08H78.15v-4.08zM119.162 14.442h5.506v5.177h4.293V5.457h-4.293v4.97h-5.506v-4.97h-4.293V19.62h4.293z"/>
    </g>
</svg>
