<svg xmlns="http://www.w3.org/2000/svg" width="168" height="60" viewBox="0 0 168 60">
    <g fill="none" fill-rule="evenodd">
        <path fill="#FF0F25" d="M0 1v39h27V28.3H11.515V1z"/>
        <path fill="#FF0F25" d="M27.485 13.227h5.066c4.31 0 7.815 3.492 7.815 7.783s-3.505 7.782-7.815 7.782h-1.02v11.672h1.02c10.774 0 19.538-8.727 19.538-19.454S43.325 1.556 32.55 1.556H15.76v23.201h11.724v-11.53zM83.307 10.015c.627-.625 1.442-.935 2.448-.935 1.005 0 1.823.31 2.449.935.625.623.94 1.463.94 2.521 0 1.059-.315 1.9-.94 2.524-.626.624-1.444.935-2.449.935-1.006 0-1.821-.311-2.448-.935-.627-.624-.938-1.465-.938-2.524 0-1.058.311-1.898.938-2.521m1.595 10.004c1.82 0 3.234-.575 4.242-1.729v1.333h4.268V5.452h-4.268v1.332c-1.008-1.153-2.422-1.73-4.242-1.73-1.88 0-3.483.722-4.81 2.169-1.33 1.445-1.994 3.216-1.994 5.313 0 2.098.664 3.87 1.994 5.315 1.327 1.444 2.93 2.168 4.81 2.168M69.261 5.622h2.383V19.62h4.294V1.555h-9.55l-7.325 18.064h4.52zM161.513 12.618v7.001h4.34V5.451h-3.978l-5.618 7.03V5.45h-4.341V19.62h3.979zM154.436 3.743h8.912V.435h-8.912zM135.747 13.14h2.586c.915 0 1.494.575 1.494 1.364 0 .788-.579 1.365-1.494 1.365h-2.586V13.14zm8.018 1.382c0-3.057-2.146-5.097-5.61-5.097h-2.405V5.451h-4.294V19.62h6.7c3.463 0 5.61-2.04 5.61-5.097zM84.171 35.76c-.621-.619-.93-1.415-.93-2.39 0-.974.309-1.771.93-2.39.622-.618 1.393-.927 2.316-.927.922 0 1.694.31 2.314.927.621.619.933 1.416.933 2.39 0 .975-.312 1.771-.933 2.39-.62.617-1.392.926-2.314.926-.923 0-1.694-.31-2.316-.927m7.624 2.881c1.45-1.433 2.172-3.19 2.172-5.27 0-2.08-.723-3.837-2.172-5.27-1.45-1.433-3.22-2.15-5.308-2.15-2.09 0-3.858.717-5.307 2.15-1.45 1.433-2.173 3.19-2.173 5.27 0 2.08.723 3.837 2.173 5.27 1.45 1.433 3.218 2.15 5.307 2.15 2.089 0 3.858-.717 5.308-2.15M100.356 33.148l3.357 4.928h.539l3.355-4.928v7.31h4.317V26.291h-4.317l-3.625 5.354-3.626-5.354H96.04v14.165h4.315zM106.873 15.6l-.696.005h-3.818l.001-.004h-.338l2.468-6.076h2.383V15.6zm6.287.005h-1.992V5.457h-9.555l-4.136 10.148h-2.173v4.014h17.856v-4.014zM145.13 19.62h4.293V5.456h-4.294zM71.646 36.382H65.24l4.027-9.918h2.38v9.918zm6.504 0h-2.21V22.396H66.39l-5.67 13.986h-2.41v4.08H78.15v-4.08zM119.162 14.442h5.506v5.177h4.293V5.457h-4.293v4.97h-5.506v-4.97h-4.293V19.62h4.293z"/>
        <path fill="#F01429" d="M0 58.25v-2.44c.7-.093 1.092-.372 1.308-2.184l.402-3.513h4.882v5.583h.618v2.554H5.747v-1.267H1.463v1.267H0zm2.76-4.521c-.103.927-.401 1.565-.834 1.967H5.12V51.4H3.03l-.269 2.328zm10.563 3.254H8.46v-6.87h4.862v1.288h-3.4v1.452h3.328v1.288H9.924v1.555h3.399v1.287zm1.127.124v-1.298c.69 0 1.092-.37 1.308-2.183l.402-3.513h4.882v6.87H19.57v-5.582h-2.09l-.268 2.328c-.33 2.853-1.36 3.378-2.76 3.378zm14.744-.124h-1.668l-.423-1.163h-2.946l-.432 1.163h-1.669l2.658-6.87h1.833l2.647 6.87zm-2.492-2.451l-1.072-2.956-1.07 2.956h2.142zm8.389 2.451h-4.862v-6.87h4.862v1.288h-3.4v1.452h3.327v1.288h-3.326v1.555h3.399v1.287zm8.986 0h-1.473v-4.81l-1.936 4.81h-.639l-1.936-4.81v4.81H36.63v-6.87h2.05l1.668 4.151 1.669-4.15h2.06v6.87zm4.377.124v-1.298c.69 0 1.091-.37 1.308-2.183l.401-3.513h4.883v6.87h-1.473v-5.582h-2.091l-.268 2.328c-.33 2.853-1.36 3.378-2.76 3.378zm9.264 0c-.628 0-1.246-.216-1.555-.494l.556-1.175c.237.196.556.371.886.371.504 0 .731-.206.999-.71l-2.534-4.986h1.658l1.7 3.647 1.71-3.647h1.658l-2.833 5.552c-.422.834-1.02 1.442-2.245 1.442zm7.41-6.994v1.926c0 .896.464 1.247 1.257 1.247a3.58 3.58 0 0 0 1.308-.227v-2.946h1.463v6.87h-1.463v-2.636a5.204 5.204 0 0 1-1.483.226c-1.751 0-2.554-1.01-2.554-2.534v-1.926h1.472zm13.076 0h1.473v6.87h-8.765v-6.87h1.462v5.583h2.184v-5.583h1.473v5.583h2.173v-5.583zm8.09 6.87h-4.861v-6.87h4.861v1.288h-3.399v1.452h3.327v1.288h-3.327v1.555h3.4v1.287zm6.401 0h-4.861v-6.87h4.861v1.288h-3.399v1.452h3.327v1.288h-3.327v1.555h3.4v1.287zm4.16 1.267v-2.44c.701-.093 1.092-.372 1.309-2.184l.401-3.513h4.883v5.583h.618v2.554h-1.463v-1.267h-4.285v1.267h-1.462zm2.761-4.521c-.103.927-.402 1.565-.834 1.967h3.193V51.4h-2.091l-.268 2.328zm8.956 3.378c-2.07 0-3.585-1.483-3.585-3.553S106.501 50 108.572 50c2.08 0 3.594 1.483 3.594 3.553s-1.514 3.554-3.594 3.554zm0-1.298c1.266 0 2.09-.978 2.09-2.255 0-1.288-.824-2.256-2.09-2.256-1.267 0-2.081.968-2.081 2.255 0 1.278.814 2.256 2.08 2.256zm8.347 1.298c-2.06 0-3.656-1.442-3.656-3.553 0-2.112 1.596-3.554 3.656-3.554 1.514 0 2.39.824 2.874 1.679l-1.257.618c-.288-.556-.906-1-1.617-1-1.246 0-2.152.959-2.152 2.257 0 1.297.906 2.255 2.152 2.255.711 0 1.329-.432 1.617-.999l1.257.608c-.494.855-1.36 1.689-2.874 1.689zm7.205-.124h-1.473v-5.582h-2.009v-1.288h5.48v1.288h-1.998v5.582zm4.258.124c-.628 0-1.246-.216-1.555-.494l.556-1.175c.237.196.556.371.886.371.505 0 .731-.206 1-.71l-2.535-4.986h1.659l1.7 3.647 1.709-3.647h1.658l-2.832 5.552c-.423.834-1.02 1.442-2.246 1.442zm12.293-.124h-1.473v-5.582h-3.244v5.582h-1.463v-6.87h6.18v6.87zm7.925 0h-1.472V54.1h-3.245v2.884h-1.463v-6.87h1.463v2.699h3.245v-2.699h1.472v6.87zm1.746-6.87h1.463v2.441h1.75c1.484 0 2.308 1.02 2.308 2.215 0 1.205-.814 2.214-2.307 2.214h-3.214v-6.87zm3.018 3.729h-1.555v1.854h1.555c.577 0 1.01-.35 1.01-.927 0-.567-.433-.927-1.01-.927zm4.552 3.141h-1.472v-6.87h1.472v6.87zm9.203 0h-1.473v-4.81l-1.936 4.81h-.639l-1.936-4.81v4.81h-1.463v-6.87h2.05l1.668 4.151 1.67-4.15h2.06v6.87z"/>
    </g>
</svg>
