<svg xmlns="http://www.w3.org/2000/svg" width="48" height="48" viewBox="0 0 48 48">
    <g fill="none" fill-rule="nonzero">
        <circle cx="24" cy="24" r="24" fill="#F01429"/>
        <path fill="#FFF" d="M30.872 28.616c-1.232-1.085-2.481-1.742-3.698-.659l-.726.655c-.532.476-1.52 2.696-5.34-1.83-3.82-4.522-1.547-5.226-1.014-5.697l.73-.656c1.21-1.086.753-2.453-.12-3.86l-.526-.852c-.877-1.404-1.832-2.326-3.045-1.242l-.655.59c-.537.403-2.035 1.71-2.399 4.196-.438 2.981.943 6.395 4.105 10.141 3.159 3.748 6.251 5.63 9.18 5.598a6.093 6.093 0 0 0 4.365-1.862l.658-.591c1.21-1.084.458-2.187-.774-3.274l-.741-.657zM27.548 16.286l.037-2.216-4.025 3.807 3.893 3.947.039-2.271c2.827.05 4.792.972 6.172 2.935-.518-2.779-2.167-5.578-6.116-6.202z"/>
    </g>
</svg>
