<svg xmlns="http://www.w3.org/2000/svg" width="27" height="27" viewBox="0 0 27 27">
    <g fill="none" fill-rule="evenodd">
        <path fill="#15ACE5" d="M0 0h27v27H0z"/>
        <path fill="#FFF" d="M13.634 18.102c-2.513 0-3.77-.893-4.157-2.015-.386-1.122.46-1.442.725-1.465.266-.023.83.038.991.504.168.483.725 1.442 1.934 1.557 1.208.114 2.006-.413 2.247-.962.242-.55-.193-1.305-2.054-1.557-1.86-.252-3.794-1.03-3.794-2.793 0-1.763 2.127-2.473 4.157-2.473 2.03 0 3.06 1.086 3.287 1.511.282.527.185 1.404-.484 1.557-.7.16-1.063-.206-1.57-1.1-.525-.923-2.393-.686-3.022-.16-.628.527-.459 1.283 2.151 1.764 2.61.48 3.577 1.373 3.577 2.77s-1.474 2.862-3.988 2.862m6.809-3.315c.085-.416.13-.847.13-1.287 0-3.701-3.166-6.701-7.073-6.701a7.49 7.49 0 0 0-1.359.124 4.236 4.236 0 0 0-2.058-.528C7.828 6.395 6 8.126 6 10.263c0 .711.204 1.377.557 1.95a6.39 6.39 0 0 0-.13 1.287c0 3.701 3.166 6.701 7.073 6.701a7.49 7.49 0 0 0 1.359-.124 4.236 4.236 0 0 0 2.058.528c2.255 0 4.083-1.731 4.083-3.868 0-.711-.204-1.377-.557-1.95"/>
    </g>
</svg>
