<svg xmlns="http://www.w3.org/2000/svg" width="125" height="189" viewBox="0 0 125 189">
    <path fill="#FFF" fill-rule="nonzero" d="M228.124 66.725L172.27-15.166a13.388 13.388 0 0 0-8.633-5.651 13.384 13.384 0 0 0-10.098 2.11L5.878 82.055A13.395 13.395 0 0 0 .23 90.69a13.402 13.402 0 0 0 2.111 10.102l55.853 81.892a13.39 13.39 0 0 0 8.633 5.651 13.43 13.43 0 0 0 5.758-.157 13.471 13.471 0 0 0 4.34-1.953L224.589 85.462c6.138-4.19 7.725-12.595 3.536-18.737zM148.9.782l-32.466 84.743-90.727-.678L148.901.782zM65.381 169.3L16.932 98.266l71.319.535-22.872 70.5zm14.669-1.53l22.34-68.864 18.618.14a6.852 6.852 0 0 0 1.68-.197 6.752 6.752 0 0 0 4.667-4.13l6.658-17.4 72.254 4.321L80.05 167.77zm59.027-103.655l25.516-66.618 48.46 71.042-73.976-4.424z"/>
</svg>
