<svg xmlns="http://www.w3.org/2000/svg" width="27" height="27" viewBox="0 0 27 27">
    <g fill="none" fill-rule="evenodd">
        <path fill="#7D3DAF" d="M0 0h27v27H0z"/>
        <g fill="#FFF">
            <path fill-rule="nonzero" d="M22.326 8.743l-.005-.021c-.427-1.737-2.35-3.601-4.118-3.989l-.02-.004a22.731 22.731 0 0 0-8.613 0l-.02.004c-1.767.388-3.69 2.252-4.118 3.989l-.005.02a17.085 17.085 0 0 0 0 7.313l.005.02c.409 1.664 2.19 3.442 3.89 3.93v1.94c0 .702.85 1.046 1.333.54l1.952-2.042a22.578 22.578 0 0 0 5.576-.374l.02-.005c1.767-.387 3.691-2.251 4.118-3.988l.005-.021a17.085 17.085 0 0 0 0-7.312zm-1.544 6.96c-.285 1.133-1.746 2.542-2.907 2.802a21.19 21.19 0 0 1-4.58.373c-.031-.001-.06.01-.082.033l-1.424 1.472-1.516 1.566a.177.177 0 0 1-.305-.123v-3.212a.11.11 0 0 0-.09-.109c-1.161-.26-2.622-1.67-2.907-2.802a15.504 15.504 0 0 1 0-6.608c.285-1.134 1.746-2.542 2.906-2.803a21.17 21.17 0 0 1 7.998 0c1.162.26 2.622 1.67 2.907 2.803a15.488 15.488 0 0 1 0 6.608z"/>
            <path d="M16.402 17.185c-.179-.054-.349-.09-.507-.157-1.636-.683-3.142-1.565-4.336-2.917-.678-.769-1.209-1.637-1.658-2.555-.213-.436-.392-.888-.575-1.338-.167-.41.079-.834.337-1.143.243-.29.555-.512.893-.675.264-.128.525-.054.718.17.416.488.799 1 1.109 1.564.19.347.138.772-.207 1.008-.084.057-.16.125-.239.19a.785.785 0 0 0-.18.19.527.527 0 0 0-.035.46c.426 1.18 1.144 2.096 2.322 2.59.189.078.378.17.596.145.363-.043.481-.445.736-.655.25-.205.568-.207.836-.036.268.17.529.354.787.54.254.182.507.36.741.568.225.2.303.461.176.732-.232.497-.57.91-1.057 1.173-.138.074-.302.098-.457.146-.179-.054.155-.048 0 0zM13.881 7.832c2.14.06 3.899 1.49 4.276 3.622.064.363.087.734.115 1.102.012.155-.075.302-.24.305-.172.002-.25-.143-.26-.298-.023-.307-.038-.615-.08-.919-.222-1.605-1.493-2.933-3.08-3.218-.24-.043-.484-.055-.726-.08-.153-.016-.353-.026-.387-.217-.028-.16.106-.288.258-.297.041-.002.083 0 .124 0 2.14.06-.041 0 0 0z"/>
            <path d="M17.134 12.078c-.003.027-.005.09-.02.15-.057.216-.383.243-.458.025a.655.655 0 0 1-.026-.208c0-.457-.1-.913-.328-1.31a2.427 2.427 0 0 0-1.015-.959 2.906 2.906 0 0 0-.81-.25c-.121-.02-.245-.033-.367-.05-.149-.02-.228-.116-.221-.263a.23.23 0 0 1 .256-.23c.491.029.966.136 1.403.369.888.473 1.395 1.22 1.543 2.219.007.045.018.09.021.135.009.112.014.224.022.372-.003.027-.008-.148 0 0z"/>
            <path d="M15.803 12.026c-.18.003-.275-.097-.294-.262-.012-.115-.023-.232-.05-.344a.97.97 0 0 0-.355-.561.924.924 0 0 0-.29-.14c-.13-.039-.267-.028-.398-.06-.142-.036-.221-.152-.199-.286a.258.258 0 0 1 .272-.208c.83.06 1.423.492 1.508 1.475.005.07.013.143-.003.21-.026.113-.11.17-.191.176-.18.003.081-.006 0 0z"/>
        </g>
    </g>
</svg>
