<svg xmlns="http://www.w3.org/2000/svg" width="27" height="27" viewBox="0 0 27 27">
    <g fill="none" fill-rule="evenodd">
        <path fill="#61A8DE" d="M0 0h27v27H0z"/>
        <path fill="#FFF" d="M17.675 10.192l-5.523 4.873a.296.296 0 0 0-.098.189l-.212 1.886c-.007.061-.094.07-.112.01l-.875-2.812a.296.296 0 0 1 .127-.34l6.522-4.036c.15-.093.303.113.171.23m1.49-2.15L7.277 12.667a.432.432 0 0 0 .035.818l3.021.89 1.128 3.57a.52.52 0 0 0 .865.207l1.562-1.592 3.065 2.245a.64.64 0 0 0 1.005-.383l2.03-9.685a.611.611 0 0 0-.821-.693"/>
    </g>
</svg>
