<svg xmlns="http://www.w3.org/2000/svg" width="27" height="27" viewBox="0 0 27 27">
    <g fill="none" fill-rule="evenodd">
        <path fill="#1BD741" d="M0 0h27v27H0z"/>
        <g fill="#FFF">
            <path d="M10.687 18.696l.212.13a5.75 5.75 0 0 0 2.996.838c3.174 0 5.757-2.58 5.757-5.751 0-3.172-2.583-5.752-5.757-5.752-3.175 0-5.758 2.58-5.758 5.752 0 1.105.314 2.178.91 3.103l.142.222-.56 1.987 2.058-.53zm-3.744 2.176l.972-3.45a6.9 6.9 0 0 1-.954-3.51c0-3.819 3.11-6.926 6.934-6.926 3.823 0 6.934 3.107 6.934 6.927 0 3.819-3.11 6.926-6.934 6.926a6.93 6.93 0 0 1-3.39-.883l-3.562.916z"/>
            <path d="M11.943 10.667l-.45-.025a.546.546 0 0 0-.386.132c-.218.188-.567.551-.674 1.025-.16.707.087 1.572.726 2.437.638.865 1.828 2.25 3.932 2.84.678.191 1.211.063 1.623-.199.326-.207.55-.54.631-.915l.072-.334a.231.231 0 0 0-.13-.258l-1.52-.696a.234.234 0 0 0-.282.069l-.596.768a.171.171 0 0 1-.192.057c-.408-.143-1.777-.712-2.528-2.15a.17.17 0 0 1 .022-.19l.57-.656a.23.23 0 0 0 .038-.242l-.655-1.523a.233.233 0 0 0-.201-.14"/>
        </g>
    </g>
</svg>
