<svg xmlns="http://www.w3.org/2000/svg" width="59" height="59" viewBox="0 0 59 59">
    <g fill="none" fill-rule="nonzero">
        <path fill="#F01429" d="M3 0h53a3 3 0 0 1 3 3v53a3 3 0 0 1-3 3H3a3 3 0 0 1-3-3V3a3 3 0 0 1 3-3z"/>
        <path fill="#FFF" d="M13 24h5.483c2.389 0 4.44.909 4.44 3.874 0 3.755-3.077 3.995-4.507 3.995h-2.64V36H13V24zm2.775 2.331v3.206h2.17c1.312 0 1.985-.48 1.985-1.646 0-1.628-1.363-1.56-1.985-1.56h-2.17zM24.656 24h5.063c1.127 0 5.718.137 5.718 5.983 0 5.674-4.07 6.017-5.97 6.017h-4.811V24zm2.775 2.331v7.338h1.766c2.17 0 3.246-1.166 3.246-3.635 0-3.325-1.9-3.703-3.078-3.703h-1.934zm12.8 2.743h4.878v2.332H40.23V36h-2.775V24H46v2.331h-5.77v2.743z"/>
    </g>
</svg>
