<svg xmlns="http://www.w3.org/2000/svg" width="36" height="31" viewBox="0 0 36 31">
    <g fill="none" fill-rule="evenodd">
        <path fill="#68757C" fill-rule="nonzero" d="M36 21.256V10.055C36 8.648 34.594 7.5 32.869 7.5h-3.77V1.643C29.1.738 28.195 0 27.085 0H8.915C7.805 0 6.9.738 6.9 1.643V7.5H3.13C1.406 7.5 0 8.648 0 10.055v11.201c0 1.407 1.406 2.554 3.131 2.554h3.77v4.922c0 .905.904 1.643 2.014 1.643h18.17c1.11 0 2.014-.738 2.014-1.643v-4.928h3.77c1.733 0 3.131-1.14 3.131-2.548zM8.405 1.643c0-.23.228-.416.51-.416h18.17c.282 0 .51.186.51.416V7.5H8.405V1.643zm19.197 27.09c0 .229-.228.415-.509.415H8.915c-.282 0-.51-.186-.51-.416v-12.46h19.19v12.46h.007zm6.893-7.477c0 .732-.73 1.327-1.626 1.327h-3.77v-6.924c0-.341-.334-.614-.752-.614H7.653c-.418 0-.752.273-.752.614v6.924H3.13c-.897 0-1.626-.595-1.626-1.327V10.055c0-.732.73-1.327 1.626-1.327H32.87c.897 0 1.626.595 1.626 1.327v11.201z"/>
        <path fill="#68757C" d="M5.625 10.125c-.295 0-.58.125-.795.33-.205.215-.33.5-.33.795 0 .295.125.58.33.795.215.205.5.33.795.33.295 0 .58-.125.795-.33.205-.204.33-.5.33-.795 0-.295-.125-.58-.33-.795-.204-.205-.5-.33-.795-.33z"/>
        <path fill="#F01429" d="M13.14 23.625h10.845c.425 0 .765-.5.765-1.125s-.34-1.125-.765-1.125H13.14c-.425 0-.765.5-.765 1.125s.34 1.125.765 1.125zM13.14 27h10.845c.425 0 .765-.5.765-1.125s-.34-1.125-.765-1.125H13.14c-.425 0-.765.5-.765 1.125S12.715 27 13.14 27zM13.14 20.25h10.845c.425 0 .765-.5.765-1.125S24.41 18 23.985 18H13.14c-.425 0-.765.5-.765 1.125s.34 1.125.765 1.125z"/>
    </g>
</svg>
