<svg xmlns="http://www.w3.org/2000/svg" width="25" height="25" viewBox="0 0 25 25">
    <g fill="none" fill-rule="evenodd">
        <circle cx="12.5" cy="12.5" r="12.5" fill="#F01429"/>
        <path fill="#F8F6F6" fill-rule="nonzero" d="M12.344 15.788c-.456-.468-.684-1.058-.684-1.73 0-2.482 3.06-2.747 3.06-4.477 0-.793-.57-1.465-1.806-1.465-1.159 0-1.995.57-2.64 1.425L9 8.015C9.97 6.753 11.432 6 13.143 6 15.537 6 17 7.363 17 9.195c0 3.011-3.401 3.256-3.401 5.087 0 .326.17.692.418.916l-1.673.59zM13.03 20c-.723 0-1.33-.651-1.33-1.424 0-.774.607-1.425 1.33-1.425.722 0 1.33.651 1.33 1.425 0 .773-.608 1.424-1.33 1.424z"/>
    </g>
</svg>
