<svg xmlns="http://www.w3.org/2000/svg" xmlns:xlink="http://www.w3.org/1999/xlink" width="21" height="34" viewBox="0 0 21 34">
    <defs>
        <path id="a" d="M0 38h29.932V.08H0z"/>
    </defs>
    <g fill="none" fill-rule="evenodd" transform="translate(-4 -.08)">
        <path fill="#67757C" d="M8.882 4.33H21.05V2.644a.566.566 0 0 0-.565-.565H9.448a.567.567 0 0 0-.566.565V4.33zm14.168 2H6.882V2.644A2.568 2.568 0 0 1 9.448.08h11.037a2.568 2.568 0 0 1 2.565 2.565V6.33z"/>
        <mask id="b" fill="#fff">
            <use xlink:href="#a"/>
        </mask>
        <path fill="#F01429" d="M13.472 14.328h11.077v-2H13.472zM13.472 10.95h11.077v-2H13.472zM7.407 14.754l-3.005-3.005 1.414-1.414 1.59 1.59 3.043-3.041 1.414 1.414zM13.472 23.112h11.077v-2H13.472zM13.472 19.735h11.077v-2H13.472zM7.407 23.54l-3.005-3.006 1.414-1.414 1.59 1.591 3.043-3.042 1.414 1.414zM13.472 32.897h11.077v-2H13.472zM13.472 29.521h11.077v-2H13.472zM7.407 33.324L4.402 30.32l1.414-1.414 1.59 1.591 3.043-3.042 1.414 1.414z" mask="url(#b)"/>
    </g>
</svg>
