<?xml version="1.0" encoding="UTF-8"?>
<svg width="30px" height="38px" viewBox="0 0 30 38" version="1.1" xmlns="http://www.w3.org/2000/svg" xmlns:xlink="http://www.w3.org/1999/xlink">
    <!-- Generator: Sketch 52.2 (67145) - http://www.bohemiancoding.com/sketch -->
    <title>Group 15 Copy</title>
    <desc>Created with Sketch.</desc>
    <defs>
        <polygon id="path-1" points="0 38 29.932 38 29.932 0.08 0 0.08"></polygon>
    </defs>
    <g id="Overview" stroke="none" stroke-width="1" fill="none" fill-rule="evenodd">
        <g id="LD_Main_m" transform="translate(-24.000000, -403.000000)">
            <g id="Group-4" transform="translate(24.000000, 400.000000)">
                <g id="Group-15-Copy" transform="translate(0.000000, 2.000000)">
                    <polygon id="Fill-1" fill="#67757C" points="21.9519 2.8362 21.9519 4.8362 27.9319 4.8362 27.9319 36.9202 1.9999 36.9202 1.9999 4.8362 8.2529 4.8362 8.2529 2.8362 -0.0001 2.8362 -0.0001 38.9202 29.9319 38.9202 29.9319 2.8362"></polygon>
                    <g id="Group-14" transform="translate(0.000000, 0.919900)">
                        <path d="M8.8818,4.3291 L21.0498,4.3291 L21.0498,2.6451 C21.0498,2.3341 20.7968,2.0801 20.4848,2.0801 L9.4478,2.0801 C9.1358,2.0801 8.8818,2.3341 8.8818,2.6451 L8.8818,4.3291 Z M23.0498,6.3291 L6.8818,6.3291 L6.8818,2.6451 C6.8818,1.2301 8.0328,0.0801 9.4478,0.0801 L20.4848,0.0801 C21.8988,0.0801 23.0498,1.2301 23.0498,2.6451 L23.0498,6.3291 Z" id="Fill-2" fill="#67757C"></path>
                        <mask id="mask-2" fill="white">
                            <use xlink:href="#path-1"></use>
                        </mask>
                        <g id="Clip-5"></g>
                        <polygon id="Fill-4" fill="#F01429" mask="url(#mask-2)" points="13.472 14.328 24.549 14.328 24.549 12.328 13.472 12.328"></polygon>
                        <polygon id="Fill-6" fill="#F01429" mask="url(#mask-2)" points="13.472 10.95 24.549 10.95 24.549 8.95 13.472 8.95"></polygon>
                        <polygon id="Fill-7" fill="#F01429" mask="url(#mask-2)" points="7.4067 14.7539 4.4017 11.7489 5.8157 10.3349 7.4067 11.9259 10.4487 8.8839 11.8627 10.2979"></polygon>
                        <polygon id="Fill-8" fill="#F01429" mask="url(#mask-2)" points="13.472 23.112 24.549 23.112 24.549 21.112 13.472 21.112"></polygon>
                        <polygon id="Fill-9" fill="#F01429" mask="url(#mask-2)" points="13.472 19.735 24.549 19.735 24.549 17.735 13.472 17.735"></polygon>
                        <polygon id="Fill-10" fill="#F01429" mask="url(#mask-2)" points="7.4067 23.5391 4.4017 20.5341 5.8157 19.1201 7.4067 20.7111 10.4487 17.6691 11.8627 19.0831"></polygon>
                        <polygon id="Fill-11" fill="#F01429" mask="url(#mask-2)" points="13.472 32.897 24.549 32.897 24.549 30.897 13.472 30.897"></polygon>
                        <polygon id="Fill-12" fill="#F01429" mask="url(#mask-2)" points="13.472 29.521 24.549 29.521 24.549 27.521 13.472 27.521"></polygon>
                        <polygon id="Fill-13" fill="#F01429" mask="url(#mask-2)" points="7.4067 33.3242 4.4017 30.3192 5.8157 28.9052 7.4067 30.4962 10.4487 27.4542 11.8627 28.8682"></polygon>
                    </g>
                </g>
            </g>
        </g>
    </g>
</svg>