<svg xmlns="http://www.w3.org/2000/svg" width="36" height="36" viewBox="0 0 36 36">
    <g fill="none" fill-rule="evenodd">
        <path fill="#67757C" d="M3.851 2c-1.02 0-1.85.83-1.85 1.851 0 1.02.83 1.85 1.85 1.85h16.73c1.02 0 1.85-.83 1.85-1.85 0-1.021-.83-1.851-1.85-1.851H3.85zm16.73 5.701H3.85a3.854 3.854 0 0 1-3.85-3.85A3.855 3.855 0 0 1 3.85 0h16.73a3.855 3.855 0 0 1 3.85 3.851 3.854 3.854 0 0 1-3.85 3.85z"/>
        <path fill="#67757C" d="M12.145 7.717a1.853 1.853 0 0 0-1.851 1.852c0 1.02.83 1.85 1.85 1.85h16.73c1.02 0 1.85-.83 1.85-1.85 0-1.021-.83-1.852-1.85-1.852h-16.73zm16.729 5.702h-16.73a3.855 3.855 0 0 1-3.85-3.85 3.856 3.856 0 0 1 3.85-3.852h16.73a3.856 3.856 0 0 1 3.85 3.852 3.854 3.854 0 0 1-3.85 3.85z"/>
        <path fill="#67757C" d="M15.985 19.105H6.87a3.854 3.854 0 0 1-3.85-3.85 3.855 3.855 0 0 1 3.85-3.852h15.387v2H6.87a1.852 1.852 0 0 0 0 3.702h9.116v2z"/>
        <path fill="#67757C" d="M13.724 24.823H6.87a3.854 3.854 0 0 1-3.85-3.85 3.855 3.855 0 0 1 3.85-3.852h8.6v2h-8.6a1.852 1.852 0 0 0 0 3.702h6.854v2z"/>
        <path fill="#67757C" d="M15.231 30.525H6.87a3.855 3.855 0 0 1-3.85-3.85 3.854 3.854 0 0 1 3.85-3.852h7.093v2H6.87a1.852 1.852 0 0 0 0 3.702h8.362v2z"/>
        <path fill="#F01429" d="M24.303 14.959c-5.204 0-9.438 4.233-9.438 9.438 0 5.204 4.234 9.438 9.438 9.438 5.204 0 9.438-4.234 9.438-9.438 0-5.205-4.234-9.438-9.438-9.438m0 20.876c-6.307 0-11.438-5.131-11.438-11.438s5.13-11.438 11.438-11.438c6.307 0 11.438 5.131 11.438 11.438S30.61 35.835 24.303 35.835"/>
        <path fill="#F01429" d="M33.19 24.396h-2a6.896 6.896 0 0 0-6.887-6.889l-.091-1.56.02-.438c4.972 0 8.959 3.986 8.959 8.887M25.972 24.185c-.437-.242-.901-.426-1.361-.617a3.065 3.065 0 0 1-.748-.418c-.444-.355-.358-.93.16-1.156.148-.065.303-.086.459-.095a3.478 3.478 0 0 1 1.72.34c.27.132.36.09.453-.193.096-.3.177-.602.267-.904.059-.202-.014-.335-.205-.421a4.419 4.419 0 0 0-1.085-.324c-.493-.075-.493-.078-.495-.572-.002-.697-.002-.697-.701-.697-.101 0-.203-.003-.304 0-.326.009-.382.067-.39.396-.005.146 0 .294-.003.443-.002.437-.004.43-.423.582-1.012.368-1.637 1.058-1.704 2.16-.06.979.45 1.639 1.253 2.12.495.296 1.042.47 1.566.703.205.09.4.193.57.336.504.416.412 1.108-.186 1.37-.32.14-.657.175-1.005.132a4.51 4.51 0 0 1-1.531-.458c-.283-.148-.366-.11-.462.198-.083.263-.157.53-.23.798-.1.358-.062.443.28.61.437.213.904.32 1.38.396.372.06.384.077.389.462l.004.527c.002.22.108.349.336.354.257.005.517.005.775-.002.21-.005.32-.12.32-.334 0-.24.01-.48.002-.72-.012-.243.094-.367.329-.431.54-.148 1-.438 1.354-.87.984-1.195.609-2.945-.784-3.715"/>
    </g>
</svg>
