<svg xmlns="http://www.w3.org/2000/svg" width="37" height="37" viewBox="0 0 37 37">
    <g fill="none" fill-rule="evenodd">
        <g fill="#F01429">
            <path d="M15.38 34.26h-1.81a7.69 7.69 0 0 1-7.68-7.68h2a5.69 5.69 0 0 0 5.68 5.68h1.81v2z"/>
            <path fill-rule="nonzero" d="M21.57 37h-4.46a3.37 3.37 0 0 1-3.37-3.37v-.75a3.37 3.37 0 0 1 3.37-3.37h4.46a3.37 3.37 0 0 1 3.37 3.37v.75A3.37 3.37 0 0 1 21.57 37zm-4.46-5.49a1.37 1.37 0 0 0-1.37 1.37v.75c0 .757.613 1.37 1.37 1.37h4.46a1.37 1.37 0 0 0 1.37-1.37v-.75a1.37 1.37 0 0 0-1.37-1.37h-4.46z"/>
        </g>
        <path fill="#68757C" fill-rule="nonzero" d="M11.26 27.62H6.33A6.33 6.33 0 0 1 0 21.29v-1.68a6.34 6.34 0 0 1 6.33-6.33h4.93v14.34zM6.33 15.28A4.33 4.33 0 0 0 2 19.61v1.68a4.33 4.33 0 0 0 4.33 4.33h2.93V15.28H6.33z"/>
        <path fill="#68757C" d="M32.6 13.75h-2c-.185-6.359-5.394-11.417-11.755-11.417-6.361 0-11.57 5.058-11.755 11.417h-2C5.291 6.298 11.39.36 18.845.36 26.3.36 32.399 6.299 32.6 13.75z"/>
        <path fill="#68757C" fill-rule="nonzero" d="M30.67 27.62h-4.93V13.28h4.93A6.34 6.34 0 0 1 37 19.61v1.68a6.33 6.33 0 0 1-6.33 6.33zm-2.93-2h2.93A4.33 4.33 0 0 0 35 21.29v-1.68a4.33 4.33 0 0 0-4.33-4.33h-2.93v10.34z"/>
    </g>
</svg>
