<?xml version="1.0" encoding="UTF-8"?>
<svg width="38px" height="37px" viewBox="0 0 38 37" version="1.1" xmlns="http://www.w3.org/2000/svg" xmlns:xlink="http://www.w3.org/1999/xlink">
    <!-- Generator: Sketch 52.2 (67145) - http://www.bohemiancoding.com/sketch -->
    <title>Group 9</title>
    <desc>Created with Sketch.</desc>
    <g id="Overview" stroke="none" stroke-width="1" fill="none" fill-rule="evenodd">
        <g id="LD_Main_6" transform="translate(-436.000000, -994.000000)">
            <g id="Group-9" transform="translate(436.000000, 994.000000)">
                <path d="M18.9396,-0.0003 L-0.0004,7.6797 L-0.0004,29.8937 L18.9396,36.7427 L37.8796,29.8937 L37.8796,7.6797 L18.9396,-0.0003 Z M1.9996,28.4897 L1.9996,9.0277 L18.9396,2.1577 L35.8806,9.0277 L35.8806,28.4897 L18.9396,34.6157 L1.9996,28.4897 Z" id="Fill-1" fill="#67757C"></path>
                <polygon id="Fill-2" fill="#67757C" points="19.9399 35.6787 17.9399 35.6787 17.9399 13.9997 36.1009 7.5227 36.7729 9.4057 19.9399 15.4097"></polygon>
                <polygon id="Fill-3" fill="#67757C" points="0.6687 9.2967 19.2497 15.8197 19.9127 13.9337 1.3307 7.4107"></polygon>
                <path d="M6.8701,18.4746 L12.4871,20.5036 L12.4871,11.8476 L18.1391,9.7426 L13.7401,8.1076 L6.8701,10.7696 L6.8701,18.4746 Z M14.4871,23.3536 L4.8701,19.8786 L4.8701,9.4006 L13.7251,5.9686 L23.8741,9.7406 L14.4871,13.2366 L14.4871,23.3536 Z" id="Fill-4" fill="#F01429"></path>
                <polygon id="Fill-5" fill="#F01429" points="27.9058 22.8233 27.2448 20.9363 34.3538 18.4463 35.0148 20.3333"></polygon>
                <polygon id="Fill-6" fill="#F01429" points="27.9058 26.3203 27.2448 24.4333 34.3538 21.9433 35.0148 23.8303"></polygon>
                <polygon id="Fill-7" fill="#F01429" points="27.7871 30.0088 27.1101 28.1258 34.3461 25.5248 35.0231 27.4068"></polygon>
                <polygon id="Fill-8" fill="#F01429" points="24.1787 31.3067 23.5017 29.4237 26.1047 28.4887 26.7817 30.3707"></polygon>
            </g>
        </g>
    </g>
</svg>