<svg xmlns="http://www.w3.org/2000/svg" viewBox="0 0 39.74 40.75">
  <defs>
    <style>
      .cls-1 {
        fill: #f01429;
      }

      .cls-2 {
        fill: #68757c;
      }
    </style>
  </defs>
  <title>01</title>
  <g id="Слой_2" data-name="Слой 2">
    <g id="Слой_49" data-name="Слой 49">
      <g>
        <g>
          <g>
            <path class="cls-1" d="M6,40.75H2a2,2,0,0,1-2-2v-13a2,2,0,0,1,2-2H6a2,2,0,0,1,2,2v13A2,2,0,0,1,6,40.75Zm-4-15v13H6v-13Z"/>
            <path class="cls-2" d="M19.1,34.88,18.38,33l8-3.09-.1-.28a2.5,2.5,0,0,0-3-1.52l-4.92,1.43A3.64,3.64,0,0,1,15.19,29l-.83-.61a3.37,3.37,0,0,0-2-.64H8v-2h4.37a5.32,5.32,0,0,1,3.16,1l.84.61a1.58,1.58,0,0,0,1.39.25l4.92-1.43a4.51,4.51,0,0,1,5.46,2.74l.3.8a1.45,1.45,0,0,1-.83,1.84Z"/>
            <path class="cls-2" d="M18.64,40.4a7.21,7.21,0,0,1-2.77-.56l-1.47-.63a6,6,0,0,0-2.33-.46H8v-2h4.07a8,8,0,0,1,3.1.62l1.48.62a5.09,5.09,0,0,0,4.28-.14L37,29.79a1.43,1.43,0,0,0-1.21-2.59l-8,3.26-.75-1.85,8-3.27a3.43,3.43,0,0,1,2.86,6.22L21.83,39.64A7.19,7.19,0,0,1,18.64,40.4Z"/>
          </g>
          <circle class="cls-1" cx="4" cy="36.75" r="1"/>
        </g>
        <g>
          <path class="cls-2" d="M20.5,24.32,8,19.8V5.07L20.5,0,33,5.07V19.8ZM10,18.4l10.5,3.79L31,18.4v-12L20.5,2.16,10,6.42Z"/>
          <polygon class="cls-2" points="21 23.75 19 23.75 19 9.1 30.94 4.84 31.61 6.72 21 10.51 21 23.75"/>
          <rect class="cls-2" x="13.46" y="1.47" width="2" height="12.69" transform="translate(2.3 18.87) rotate(-70.66)"/>
          <path class="cls-1" d="M18,16l-7-2.53V6.09L17.15,3.7,24.8,6.54,18,9.08ZM13,12l3,1.08V7.69l3.07-1.14-1.9-.71L13,7.46Z"/>
        </g>
      </g>
    </g>
  </g>
</svg>
