<svg xmlns="http://www.w3.org/2000/svg" width="38" height="37" viewBox="0 0 38 37">
    <g fill="none" fill-rule="evenodd">
        <path fill="#67757C" d="M18.94 0L0 7.68v22.214l18.94 6.849 18.94-6.85V7.68L18.94 0zM2 28.49V9.028l16.94-6.87 16.94 6.87V28.49l-16.94 6.126L2 28.49z"/>
        <path fill="#67757C" d="M19.94 35.679h-2v-21.68L36.1 7.524l.673 1.883L19.94 15.41z"/>
        <path fill="#67757C" d="M.669 9.297l18.58 6.523.664-1.886L1.33 7.41z"/>
        <path fill="#F01429" d="M6.87 18.475l5.617 2.029v-8.656l5.652-2.105-4.399-1.635-6.87 2.662v7.705zm7.617 4.879L4.87 19.879V9.4l8.855-3.432 10.15 3.772-9.388 3.496v10.117zM27.906 22.823l-.661-1.887 7.109-2.49.66 1.887zM27.906 26.32l-.661-1.887 7.109-2.49.66 1.887zM27.787 30.009l-.677-1.883 7.236-2.601.677 1.882zM24.179 31.307l-.677-1.883 2.603-.935.677 1.882z"/>
    </g>
</svg>
