<svg xmlns="http://www.w3.org/2000/svg" xmlns:xlink="http://www.w3.org/1999/xlink" width="35" height="35" viewBox="0 0 35 35">
    <defs>
        <path id="a" d="M.554.87h25.122v17.645H.554z"/>
    </defs>
    <g fill="none" fill-rule="evenodd">
        <path fill="#67757C" d="M10.495 30.598l-1.85-.764L18.756 5.36l-4.878-2.015-3.508 8.493-1.85-.763 3.89-9.417a1 1 0 0 1 1.307-.542l6.727 2.777a1.002 1.002 0 0 1 .542 1.306l-10.49 25.399z"/>
        <path fill="#67757C" d="M9.946 34.53l-1.433-1.397 19.464-19.968-3.768-3.689-8.863 9.171-1.438-1.39 9.562-9.895c.185-.19.44-.3.705-.305.27-.034.523.1.714.285l5.2 5.091c.394.386.401 1.018.017 1.413L9.946 34.53z"/>
        <g transform="translate(9 15.92)">
            <mask id="b" fill="#fff">
                <use xlink:href="#a"/>
            </mask>
            <path fill="#67757C" d="M1.277 18.515L.554 16.65 23.39 7.807l-1.753-4.64-9.28 3.599-.724-1.865L21.854.938a1 1 0 0 1 1.297.579l2.46 6.51a1 1 0 0 1-.574 1.287l-23.76 9.2z" mask="url(#b)"/>
        </g>
        <path fill="#F01429" d="M2 32.92h6.588V2H2v30.92zm7.588 2H1a1 1 0 0 1-1-1V1a1 1 0 0 1 1-1h8.588a1 1 0 0 1 1 1v32.92a1 1 0 0 1-1 1z"/>
        <path fill="#67757C" d="M5.264 28.658a.431.431 0 1 0 0 .863.431.431 0 0 0 0-.863m0 2.863a2.434 2.434 0 0 1-2.43-2.43 2.435 2.435 0 0 1 2.43-2.433 2.435 2.435 0 0 1 2.431 2.432 2.434 2.434 0 0 1-2.43 2.431"/>
    </g>
</svg>
