<svg xmlns="http://www.w3.org/2000/svg" width="43" height="30" viewBox="0 0 43 30">
    <g fill="none" fill-rule="evenodd">
        <path fill="#68757C" d="M7.9 25.76H.46V15.8h2v7.96H7.9zM28.2 25.76H17.76v-2h8.44V2H0V0h28.2z"/>
        <path fill="#68757C" fill-rule="nonzero" d="M12.32 29.77a5.49 5.49 0 1 1 0-10.98 5.49 5.49 0 0 1 0 10.98zm0-9a3.49 3.49 0 1 0 3.49 3.49 3.5 3.5 0 0 0-3.49-3.47v-.02zM32.8 29.77a5.49 5.49 0 1 1 5.49-5.49 5.5 5.5 0 0 1-5.49 5.49zm0-9a3.49 3.49 0 1 0 3.49 3.49 3.5 3.5 0 0 0-3.49-3.47v-.02z"/>
        <path fill="#68757C" d="M42.76 25.44h-4.84v-2h2.84V15.9l-3.21-8.38H27.12v-2h11.81l3.83 10.02z"/>
        <path fill="#F01429" d="M0 5.89h12.38v2H0zM0 11.01h9.71v2H0z"/>
    </g>
</svg>
