<svg xmlns="http://www.w3.org/2000/svg" width="240" height="35" viewBox="0 0 240 35">
    <g fill="none" fill-rule="evenodd">
        <path fill="#15ACE5" d="M0 0h35v35H0z"/>
        <path fill="#FFF" d="M17.67 22.83c-3.184 0-4.775-1.132-5.265-2.553-.49-1.42.581-1.827.918-1.856.337-.029 1.051.048 1.255.638.212.613.919 1.827 2.45 1.972 1.53.145 2.54-.522 2.846-1.218.306-.696-.245-1.653-2.602-1.972-2.357-.319-4.806-1.305-4.806-3.538 0-2.233 2.694-3.132 5.265-3.132 2.572 0 3.876 1.375 4.164 1.914.357.667.235 1.778-.612 1.972-.888.203-1.347-.261-1.99-1.392-.665-1.17-3.031-.87-3.827-.203-.796.667-.582 1.624 2.725 2.233 3.306.609 4.53 1.74 4.53 3.51 0 1.768-1.867 3.624-5.05 3.624m8.623-4.199A8.1 8.1 0 0 0 26.46 17c0-4.688-4.012-8.488-8.96-8.488-.589 0-1.164.054-1.72.157A5.366 5.366 0 0 0 13.171 8C10.315 8 8 10.194 8 12.9c0 .9.258 1.744.706 2.47A8.095 8.095 0 0 0 8.54 17c0 4.688 4.012 8.488 8.96 8.488.589 0 1.164-.054 1.72-.157a5.366 5.366 0 0 0 2.608.669C24.685 26 27 23.807 27 21.1a4.68 4.68 0 0 0-.706-2.47"/>
        <path fill="#FF9800" d="M41 0h35v35H41z"/>
        <path fill="#FFF" d="M58.016 21.123c-1.549-.147-2.946-.493-4.142-1.342-.148-.105-.301-.207-.437-.325-.523-.456-.576-.978-.162-1.517.355-.46.95-.584 1.568-.32.12.052.233.116.343.185 2.229 1.39 5.29 1.428 7.528.062.221-.154.458-.28.733-.344.534-.124 1.032.054 1.318.478.328.484.323.956-.08 1.332-.619.576-1.363.993-2.19 1.284-.781.275-1.637.413-2.485.505.128.126.188.188.268.261 1.15 1.049 2.307 2.094 3.454 3.146.39.358.472.803.257 1.22a1.383 1.383 0 0 1-1.278.723c-.327-.02-.583-.168-.81-.375-.868-.793-1.752-1.571-2.603-2.379-.248-.235-.367-.19-.585.014-.874.815-1.762 1.619-2.655 2.418-.4.358-.878.423-1.343.218-.495-.217-.81-.675-.785-1.135.017-.312.186-.55.421-.762 1.139-1.032 2.274-2.066 3.41-3.1.076-.068.146-.141.255-.247zm3.434-8.145c-.005-1.223-1.089-2.196-2.447-2.197-1.369-.001-2.462.99-2.452 2.224.01 1.218 1.103 2.185 2.465 2.18 1.358-.004 2.438-.984 2.434-2.207zm-2.487 4.504c-2.736-.008-4.979-2.047-4.963-4.51.016-2.49 2.26-4.496 5.023-4.49 2.769.007 4.99 2.043 4.977 4.559-.014 2.458-2.273 4.45-5.037 4.441z"/>
        <path fill="#39569D" d="M82 0h35v35H82z"/>
        <path fill="#4C76A4" d="M123 0h35v35h-35z"/>
        <path fill="#FFF" d="M148.905 21.867a1.161 1.161 0 0 0-.061-.112c-.313-.538-.91-1.198-1.79-1.98l-.02-.018-.008-.01-.01-.008h-.01c-.4-.364-.652-.61-.758-.735-.194-.239-.238-.48-.132-.726.075-.185.357-.576.844-1.173.256-.317.459-.57.609-.762 1.08-1.374 1.55-2.252 1.406-2.634l-.056-.09c-.038-.053-.135-.102-.29-.147a1.542 1.542 0 0 0-.6-.023l-2.7.018a.366.366 0 0 0-.187.005l-.122.027-.047.022-.037.027a.41.41 0 0 0-.103.094.609.609 0 0 0-.094.157 14.35 14.35 0 0 1-1.003 2.016c-.23.37-.443.691-.637.963a4.67 4.67 0 0 1-.487.6c-.132.129-.25.232-.357.31-.106.077-.187.11-.243.098a7.13 7.13 0 0 1-.16-.036.607.607 0 0 1-.21-.22.951.951 0 0 1-.108-.349 3.687 3.687 0 0 1-.033-.363 7.247 7.247 0 0 1 .005-.43c.006-.185.01-.31.01-.376 0-.227.004-.474.013-.74.01-.265.017-.476.024-.631.006-.155.009-.32.009-.493s-.011-.309-.033-.408a1.352 1.352 0 0 0-.098-.286.49.49 0 0 0-.192-.215 1.112 1.112 0 0 0-.314-.121A6.513 6.513 0 0 0 139.66 13c-1.162-.012-1.91.06-2.24.215-.131.066-.25.156-.356.27-.113.13-.128.202-.047.214.375.054.64.182.796.385l.057.108c.043.078.087.215.13.412.045.197.073.415.085.654.031.436.031.81 0 1.12-.031.31-.06.552-.089.726a1.405 1.405 0 0 1-.239.618.158.158 0 0 1-.047.045.73.73 0 0 1-.253.045c-.087 0-.193-.042-.318-.126a2.213 2.213 0 0 1-.39-.345 4.62 4.62 0 0 1-.454-.614 10.567 10.567 0 0 1-.525-.931l-.15-.26c-.093-.168-.221-.411-.384-.73-.162-.32-.306-.63-.43-.928a.594.594 0 0 0-.226-.287l-.047-.027a.651.651 0 0 0-.15-.076 1.03 1.03 0 0 0-.215-.058l-2.568.018c-.262 0-.44.057-.534.17l-.038.054a.279.279 0 0 0-.028.143c0 .066.019.147.056.242a29.02 29.02 0 0 0 1.223 2.437c.44.783.823 1.413 1.148 1.89.325.479.656.93.994 1.354.337.424.56.696.67.815.11.12.195.209.257.269l.235.215c.15.143.37.315.66.515.291.2.613.397.966.591.353.194.764.353 1.232.475.469.123.925.172 1.369.148h1.077c.219-.018.385-.084.497-.197l.037-.045a.58.58 0 0 0 .07-.166.873.873 0 0 0 .033-.246 2.826 2.826 0 0 1 .061-.694c.047-.206.1-.362.16-.466a1.148 1.148 0 0 1 .36-.394.627.627 0 0 1 .075-.032c.15-.047.327-.001.53.14.203.14.394.313.572.519.178.206.392.438.642.694.25.257.468.448.656.574l.187.107c.125.072.288.138.488.197.2.06.374.075.524.045l2.4-.036c.237 0 .421-.037.552-.112.132-.074.21-.157.235-.246a.664.664 0 0 0 .004-.305 1.086 1.086 0 0 0-.065-.237"/>
        <g>
            <path fill="#1BD741" d="M164 0h35v35h-35z"/>
            <g fill="#FFF">
                <path d="M177.853 24.235l.275.168a7.455 7.455 0 0 0 3.884 1.087c4.115 0 7.463-3.344 7.463-7.455 0-4.111-3.348-7.456-7.463-7.456-4.116 0-7.464 3.345-7.464 7.456 0 1.432.407 2.823 1.178 4.022l.186.289-.726 2.575 2.667-.686zM173 27.056l1.26-4.472a8.943 8.943 0 0 1-1.237-4.55c0-4.95 4.032-8.978 8.989-8.978 4.956 0 8.988 4.028 8.988 8.979 0 4.95-4.032 8.978-8.988 8.978a8.984 8.984 0 0 1-4.395-1.144L173 27.056z"/>
                <path d="M179.481 13.827l-.582-.031a.707.707 0 0 0-.501.17c-.283.244-.735.715-.873 1.33-.207.915.113 2.037.94 3.158.828 1.122 2.37 2.916 5.097 3.683.88.246 1.57.08 2.104-.26.422-.268.714-.699.818-1.186l.094-.432a.3.3 0 0 0-.17-.335l-1.969-.902a.303.303 0 0 0-.365.089l-.774.996a.222.222 0 0 1-.248.074c-.53-.185-2.303-.924-3.277-2.787a.221.221 0 0 1 .028-.247l.74-.85a.298.298 0 0 0 .049-.314l-.85-1.974a.302.302 0 0 0-.26-.182"/>
            </g>
        </g>
        <g>
            <path fill="#61A8DE" d="M205 0h35v35h-35z"/>
            <path fill="#FFF" d="M227.96 13.29l-7.222 6.202a.373.373 0 0 0-.129.24l-.278 2.4c-.009.079-.122.09-.146.014l-1.144-3.58a.372.372 0 0 1 .166-.432l8.529-5.137c.196-.118.397.144.224.293m1.949-2.736l-15.548 5.884a.546.546 0 0 0 .045 1.042l3.951 1.133 1.475 4.543c.154.475.773.619 1.132.263l2.042-2.025 4.008 2.857c.49.35 1.19.09 1.314-.489l2.654-12.325c.13-.604-.481-1.107-1.073-.883"/>
        </g>
        <path fill="#FFF" d="M101.736 11.003L100.057 11c-1.886 0-3.105 1.352-3.105 3.445v1.589h-1.688c-.146 0-.264.128-.264.286v2.301c0 .158.118.286.264.286h1.688v5.808c0 .157.118.285.264.285h2.203c.146 0 .264-.128.264-.285v-5.808h1.974c.145 0 .264-.128.264-.286V16.32a.298.298 0 0 0-.077-.202.254.254 0 0 0-.187-.084h-1.974v-1.347c0-.647.142-.975.922-.975h1.131c.146 0 .264-.129.264-.286v-2.138c0-.157-.118-.285-.264-.285"/>
    </g>
</svg>
