<svg xmlns="http://www.w3.org/2000/svg" width="204" height="40" viewBox="0 0 204 40">
    <g fill="none" fill-rule="evenodd">
        <path fill="#EFF1F1" d="M0 0h40v40H0z"/>
        <g fill="#F01429" fill-rule="nonzero" transform="translate(10 10)">
            <path d="M13.75 0h-7.5A6.25 6.25 0 0 0 0 6.25v7.5A6.25 6.25 0 0 0 6.25 20h7.5A6.25 6.25 0 0 0 20 13.75v-7.5A6.25 6.25 0 0 0 13.75 0zm4.375 13.75a4.38 4.38 0 0 1-4.375 4.375h-7.5a4.38 4.38 0 0 1-4.375-4.375v-7.5A4.38 4.38 0 0 1 6.25 1.875h7.5a4.38 4.38 0 0 1 4.375 4.375v7.5z"/>
            <path d="M10 5a5 5 0 1 0 0 10 5 5 0 0 0 0-10zm0 8.125A3.13 3.13 0 0 1 6.875 10 3.129 3.129 0 0 1 10 6.875 3.129 3.129 0 0 1 13.125 10 3.13 3.13 0 0 1 10 13.125z"/>
            <circle cx="15.5" cy="4.5" r="1"/>
        </g>
        <path fill="#EFF1F1" d="M56 0h40v40H56z"/>
        <path fill="#F01429" d="M79.661 11.004L77.502 11c-2.425 0-3.992 1.739-3.992 4.43v2.042h-2.17c-.188 0-.34.165-.34.367v2.96c0 .202.152.367.34.367h2.17v7.467c0 .203.152.367.34.367h2.831c.188 0 .34-.165.34-.367v-7.467h2.537c.188 0 .34-.165.34-.367v-2.96a.383.383 0 0 0-.099-.26.327.327 0 0 0-.24-.107h-2.538v-1.731c0-.832.183-1.255 1.186-1.255h1.454c.187 0 .339-.165.339-.367V11.37c0-.203-.152-.367-.339-.367"/>
        <path fill="#EFF1F1" d="M112 0h40v40h-40z"/>
        <path fill="#F01429" d="M144.546 25.886a1.596 1.596 0 0 0-.076-.15c-.394-.72-1.145-1.606-2.254-2.655l-.024-.024-.012-.011-.011-.012h-.012c-.504-.489-.823-.817-.956-.985-.244-.32-.3-.645-.166-.973.095-.249.449-.773 1.062-1.574.323-.424.579-.764.767-1.02 1.362-1.842 1.952-3.02 1.77-3.532l-.07-.12c-.047-.071-.169-.137-.365-.198-.197-.06-.449-.07-.756-.03l-3.398.024a.434.434 0 0 0-.237.006l-.153.037-.06.03-.046.036a.527.527 0 0 0-.13.126.826.826 0 0 0-.118.21c-.37.969-.79 1.87-1.263 2.702-.29.497-.558.927-.802 1.291a6.2 6.2 0 0 1-.614.805 4.31 4.31 0 0 1-.448.414c-.134.105-.236.149-.307.132a8.604 8.604 0 0 1-.2-.048.793.793 0 0 1-.266-.294 1.334 1.334 0 0 1-.136-.468 5.234 5.234 0 0 1-.041-.487c-.004-.136-.002-.328.006-.576.008-.249.011-.417.011-.505 0-.304.006-.634.018-.99.012-.357.021-.64.03-.847.008-.208.011-.429.011-.66 0-.233-.014-.415-.041-.547a1.891 1.891 0 0 0-.124-.385.644.644 0 0 0-.242-.288 1.35 1.35 0 0 0-.395-.162c-.417-.096-.948-.148-1.593-.156-1.464-.016-2.404.08-2.82.288a1.593 1.593 0 0 0-.45.36c-.14.176-.16.273-.058.288.472.072.806.245 1.003.517l.07.144c.056.104.11.288.166.553.055.264.09.556.106.876.04.585.04 1.085 0 1.502-.04.416-.077.74-.112.972-.036.233-.089.42-.16.565-.07.144-.117.232-.141.264a.206.206 0 0 1-.059.06.87.87 0 0 1-.319.06c-.11 0-.244-.056-.4-.168a2.852 2.852 0 0 1-.49-.462c-.17-.197-.36-.47-.573-.823a14.425 14.425 0 0 1-.661-1.25l-.189-.348a30.21 30.21 0 0 1-.484-.978 19.035 19.035 0 0 1-.542-1.244.79.79 0 0 0-.284-.384l-.059-.036a.803.803 0 0 0-.188-.102 1.236 1.236 0 0 0-.272-.078l-3.234.024c-.33 0-.554.076-.672.228l-.047.072a.395.395 0 0 0-.036.192.97.97 0 0 0 .07.325 39.96 39.96 0 0 0 1.54 3.266 36.873 36.873 0 0 0 1.446 2.534c.41.641.827 1.246 1.251 1.814.425.569.707.933.844 1.093.138.16.246.28.325.36l.295.289c.189.192.466.422.832.69.366.268.771.533 1.216.793.444.26.961.472 1.551.636a5.28 5.28 0 0 0 1.723.199h1.358c.275-.024.484-.112.625-.265l.047-.06a.805.805 0 0 0 .089-.222c.027-.1.041-.21.041-.33a4.027 4.027 0 0 1 .077-.93c.058-.277.125-.485.2-.625a1.532 1.532 0 0 1 .455-.529c.04-.02.07-.033.094-.042.189-.064.411-.002.667.187.256.188.496.42.72.696.224.277.494.587.808.931.315.344.59.6.826.769l.236.144c.158.096.363.184.614.264.252.08.472.1.661.06l3.021-.048c.299 0 .531-.05.696-.15.166-.1.264-.21.295-.33a.946.946 0 0 0 .006-.409 1.53 1.53 0 0 0-.083-.318"/>
        <g fill="#F01429">
            <path d="M196.16 20.383l-6.11-2.958a.245.245 0 0 0-.35.224v6.102c0 .185.193.306.356.222l6.11-3.143a.25.25 0 0 0-.006-.447m3.27 8.017h-12.86c-2.524 0-4.57-2.024-4.57-4.52v-6.36c0-2.496 2.046-4.52 4.57-4.52h12.86c2.524 0 4.57 2.024 4.57 4.52v6.36c0 2.496-2.046 4.52-4.57 4.52"/>
        </g>
    </g>
</svg>
