<svg xmlns="http://www.w3.org/2000/svg" width="311" height="219" viewBox="0 0 311 219">
    <path fill="#FFF" fill-rule="nonzero" d="M306.91 118.46L231.848 8.434A17.99 17.99 0 0 0 220.245.843a17.997 17.997 0 0 0-13.573 2.836L8.191 139.085a18.001 18.001 0 0 0-7.593 11.602 18 18 0 0 0 2.836 13.573l75.061 110.026a17.995 17.995 0 0 0 11.604 7.593c2.609.493 5.237.411 7.739-.213a18.113 18.113 0 0 0 5.834-2.624l198.483-135.406c8.25-5.63 10.384-16.924 4.754-25.176zM200.435 29.865l-43.648 113.868-121.944-.9L200.436 29.865zM88.156 256.303l-65.108-95.439 95.858.71-30.75 94.729zm19.717-2.059l30.037-92.53 25.023.186a9.213 9.213 0 0 0 2.259-.264 9.077 9.077 0 0 0 6.272-5.551l8.951-23.38 97.116 5.798-169.658 115.741zm79.351-139.28l34.303-89.514 65.127 95.45-99.43-5.936z" opacity=".253"/>
</svg>
