<?xml version="1.0" encoding="UTF-8"?>
<svg width="37px" height="37px" viewBox="0 0 37 37" version="1.1" xmlns="http://www.w3.org/2000/svg" xmlns:xlink="http://www.w3.org/1999/xlink">
    <!-- Generator: Sketch 52.2 (67145) - http://www.bohemiancoding.com/sketch -->
    <title>Consalty</title>
    <desc>Created with Sketch.</desc>
    <g id="Overview" stroke="none" stroke-width="1" fill="none" fill-rule="evenodd">
        <g id="LD_Main_6" transform="translate(-436.000000, -880.000000)">
            <g id="Consalty" transform="translate(436.000000, 880.000000)">
                <g id="Group" transform="translate(5.000000, 26.000000)" fill="#F01429">
                    <path d="M10.38,8.26 L8.57,8.26 C4.33073717,8.25449088 0.89550912,4.81926283 0.89,0.58 L2.89,0.58 C2.89550431,3.71469459 5.43530541,6.25449569 8.57,6.26 L10.38,6.26 L10.38,8.26 Z" id="Path"></path>
                    <path d="M16.57,11 L12.11,11 C10.2488004,11 8.74,9.49119961 8.74,7.63 L8.74,6.88 C8.74,5.01880039 10.2488004,3.51 12.11,3.51 L16.57,3.51 C18.4311996,3.51 19.94,5.01880039 19.94,6.88 L19.94,7.63 C19.94,9.49119961 18.4311996,11 16.57,11 Z M12.11,5.51 C11.3533699,5.51 10.74,6.12336989 10.74,6.88 L10.74,7.63 C10.74,8.38663011 11.3533699,9 12.11,9 L16.57,9 C16.9333466,9 17.2818115,8.85566113 17.5387363,8.59873629 C17.7956611,8.34181145 17.94,7.99334659 17.94,7.63 L17.94,6.88 C17.94,6.12336989 17.3266301,5.51 16.57,5.51 L12.11,5.51 Z" id="Shape" fill-rule="nonzero"></path>
                </g>
                <path d="M11.26,27.62 L6.33,27.62 C2.83403753,27.62 4.28131924e-16,24.7859625 0,21.29 L0,19.61 C0.00550620281,16.1163208 2.83632082,13.2855062 6.33,13.28 L11.26,13.28 L11.26,27.62 Z M6.33,15.28 C3.93860703,15.28 2,17.218607 2,19.61 L2,21.29 C2,23.681393 3.93860703,25.62 6.33,25.62 L9.26,25.62 L9.26,15.28 L6.33,15.28 Z" id="Shape" fill="#68757C" fill-rule="nonzero"></path>
                <path d="M32.6,13.75 L30.6,13.75 C30.4145192,7.39136182 25.2063428,2.33289211 18.845,2.33289211 C12.4836572,2.33289211 7.27548081,7.39136182 7.09,13.75 L5.09,13.75 C5.29095432,6.29773697 11.390028,0.360911041 18.845,0.360911041 C26.299972,0.360911041 32.3990457,6.29773697 32.6,13.75 Z" id="Path" fill="#68757C"></path>
                <path d="M30.67,27.62 L25.74,27.62 L25.74,13.28 L30.67,13.28 C34.1636792,13.2855062 36.9944938,16.1163208 37,19.61 L37,21.29 C37,24.7859625 34.1659625,27.62 30.67,27.62 Z M27.74,25.62 L30.67,25.62 C33.061393,25.62 35,23.681393 35,21.29 L35,19.61 C35,17.218607 33.061393,15.28 30.67,15.28 L27.74,15.28 L27.74,25.62 Z" id="Shape" fill="#68757C" fill-rule="nonzero"></path>
            </g>
        </g>
    </g>
</svg>