<?xml version="1.0" encoding="UTF-8"?>
<svg width="43px" height="30px" viewBox="0 0 43 30" version="1.1" xmlns="http://www.w3.org/2000/svg" xmlns:xlink="http://www.w3.org/1999/xlink">
    <!-- Generator: Sketch 52.2 (67145) - http://www.bohemiancoding.com/sketch -->
    <title>Delivery_on_object</title>
    <desc>Created with Sketch.</desc>
    <g id="Overview" stroke="none" stroke-width="1" fill="none" fill-rule="evenodd">
        <g id="LD_Main_6" transform="translate(-1037.000000, -995.000000)">
            <g id="Delivery_on_object" transform="translate(1037.000000, 995.000000)">
                <polygon id="Path" fill="#68757C" points="7.9 25.76 0.46 25.76 0.46 15.8 2.46 15.8 2.46 23.76 7.9 23.76"></polygon>
                <polygon id="Path" fill="#68757C" points="28.2 25.76 17.76 25.76 17.76 23.76 26.2 23.76 26.2 2 0 2 0 0 28.2 0"></polygon>
                <path d="M12.32,29.77 C10.0995023,29.77 8.09764906,28.4324044 7.24790137,26.380932 C6.39815368,24.3294596 6.86785477,21.9681128 8.43798377,20.3979838 C10.0081128,18.8278548 12.3694596,18.3581537 14.420932,19.2079014 C16.4724044,20.0576491 17.81,22.0595023 17.81,24.28 C17.81,27.3120433 15.3520433,29.77 12.32,29.77 Z M12.32,20.77 C10.3925262,20.77 8.83,22.3325262 8.83,24.26 C8.83,26.1874738 10.3925262,27.75 12.32,27.75 C14.2474738,27.75 15.81,26.1874738 15.81,24.26 C15.7935723,22.342621 14.2374418,20.7954081 12.32,20.79 L12.32,20.77 Z" id="Shape" fill="#68757C" fill-rule="nonzero"></path>
                <path d="M32.8,29.77 C30.5795023,29.77 28.5776491,28.4324044 27.7279014,26.380932 C26.8781537,24.3294596 27.3478548,21.9681128 28.9179838,20.3979838 C30.4881128,18.8278548 32.8494596,18.3581537 34.900932,19.2079014 C36.9524044,20.0576491 38.29,22.0595023 38.29,24.28 C38.2844963,27.3097607 35.8297607,29.7644963 32.8,29.77 Z M32.8,20.77 C30.8725262,20.77 29.31,22.3325262 29.31,24.26 C29.31,26.1874738 30.8725262,27.75 32.8,27.75 C34.7274738,27.75 36.29,26.1874738 36.29,24.26 C36.2735723,22.342621 34.7174418,20.7954081 32.8,20.79 L32.8,20.77 Z" id="Shape" fill="#68757C" fill-rule="nonzero"></path>
                <polygon id="Path" fill="#68757C" points="42.76 25.44 37.92 25.44 37.92 23.44 40.76 23.44 40.76 15.9 37.55 7.52 27.12 7.52 27.12 5.52 38.93 5.52 42.76 15.54"></polygon>
                <rect id="Rectangle" fill="#F01429" x="0" y="5.89" width="12.38" height="2"></rect>
                <rect id="Rectangle" fill="#F01429" x="0" y="11.01" width="9.71" height="2"></rect>
            </g>
        </g>
    </g>
</svg>