<?xml version="1.0" encoding="UTF-8"?>
<svg width="35px" height="35px" viewBox="0 0 35 35" version="1.1" xmlns="http://www.w3.org/2000/svg" xmlns:xlink="http://www.w3.org/1999/xlink">
    <!-- Generator: Sketch 52.2 (67145) - http://www.bohemiancoding.com/sketch -->
    <title>Group 11</title>
    <desc>Created with Sketch.</desc>
    <defs>
        <polygon id="path-1" points="0.5543 0.869891794 25.676 0.869891794 25.676 18.5146 0.5543 18.5146"></polygon>
    </defs>
    <g id="Overview" stroke="none" stroke-width="1" fill="none" fill-rule="evenodd">
        <g id="LD_Main_6" transform="translate(-741.000000, -880.000000)">
            <g id="Group-11" transform="translate(741.000000, 880.000000)">
                <path d="M10.4946,30.5977 L8.6456,29.8337 L18.7546,5.3597 L13.8766,3.3447 L10.3686,11.8377 L8.5196,11.0747 L12.4096,1.6577 C12.6206,1.1477 13.2036,0.9047 13.7156,1.1157 L20.4426,3.8927 C20.6876,3.9937 20.8826,4.1877 20.9836,4.4327 C21.0856,4.6777 21.0856,4.9527 20.9846,5.1987 L10.4946,30.5977 Z" id="Fill-1" fill="#67757C"></path>
                <path d="M9.9463,34.5293 L8.5133,33.1333 L27.9773,13.1653 L24.2093,9.4763 L15.3463,18.6473 L13.9083,17.2573 L23.4703,7.3623 C23.6553,7.1713 23.9093,7.0613 24.1753,7.0573 C24.4453,7.0233 24.6983,7.1573 24.8893,7.3423 L30.0893,12.4333 C30.4833,12.8193 30.4903,13.4513 30.1063,13.8463 L9.9463,34.5293 Z" id="Fill-3" fill="#67757C"></path>
                <g id="Group-7" transform="translate(9.000000, 15.920900)">
                    <mask id="mask-2" fill="white">
                        <use xlink:href="#path-1"></use>
                    </mask>
                    <g id="Clip-6"></g>
                    <path d="M1.2773,18.5146 L0.5543,16.6496 L23.3893,7.8066 L21.6363,3.1666 L12.3553,6.7656 L11.6323,4.9006 L21.8543,0.9376 C22.1023,0.8406 22.3793,0.8486 22.6233,0.9566 C22.8663,1.0656 23.0563,1.2676 23.1513,1.5166 L25.6113,8.0276 C25.8053,8.5406 25.5483,9.1156 25.0373,9.3136 L1.2773,18.5146 Z" id="Fill-5" fill="#67757C" mask="url(#mask-2)"></path>
                </g>
                <path d="M2,32.9209 L8.588,32.9209 L8.588,1.9999 L2,1.9999 L2,32.9209 Z M9.588,34.9209 L1,34.9209 C0.448,34.9209 0,34.4739 0,33.9209 L0,0.9999 C0,0.4469 0.448,-0.0001 1,-0.0001 L9.588,-0.0001 C10.14,-0.0001 10.588,0.4469 10.588,0.9999 L10.588,33.9209 C10.588,34.4739 10.14,34.9209 9.588,34.9209 Z" id="Fill-8" fill="#F01429"></path>
                <path d="M5.2642,28.6582 C5.0262,28.6582 4.8332,28.8512 4.8332,29.0902 C4.8332,29.3282 5.0262,29.5212 5.2642,29.5212 C5.5022,29.5212 5.6952,29.3282 5.6952,29.0902 C5.6952,28.8512 5.5022,28.6582 5.2642,28.6582 M5.2642,31.5212 C3.9242,31.5212 2.8332,30.4302 2.8332,29.0902 C2.8332,27.7492 3.9242,26.6582 5.2642,26.6582 C6.6042,26.6582 7.6952,27.7492 7.6952,29.0902 C7.6952,30.4302 6.6042,31.5212 5.2642,31.5212" id="Fill-10" fill="#67757C"></path>
            </g>
        </g>
    </g>
</svg>