<?xml version="1.0" encoding="UTF-8"?>
<svg width="31px" height="36px" viewBox="0 0 31 36" version="1.1" xmlns="http://www.w3.org/2000/svg" xmlns:xlink="http://www.w3.org/1999/xlink">
    <!-- Generator: Sketch 52.2 (67145) - http://www.bohemiancoding.com/sketch -->
    <title>Raschet</title>
    <desc>Created with Sketch.</desc>
    <g id="Overview" stroke="none" stroke-width="1" fill="none" fill-rule="evenodd">
        <g id="LD_Main_6" transform="translate(-1044.000000, -880.000000)">
            <g id="Raschet" transform="translate(1043.000000, 880.000000)">
                <g id="Group" transform="translate(17.000000, 0.000000)">
                    <polygon id="Path" fill="#68757C" points="15 35.4 0.24 35.4 0.24 0.28 15 0.28 15 2.28 2.24 2.28 2.24 33.4 15 33.4"></polygon>
                    <polygon id="Path" fill="#F01429" points="14.58 29.85 7.28 29.85 7.28 27.85 12.58 27.85 12.58 7.84 7.28 7.84 7.28 5.84 14.58 5.84"></polygon>
                    <rect id="Rectangle" fill="#F01429" x="7.28" y="11.52" width="6.3" height="2"></rect>
                    <rect id="Rectangle" fill="#F01429" x="7.28" y="16.96" width="6.3" height="2"></rect>
                    <rect id="Rectangle" fill="#F01429" x="7.28" y="22.4" width="6.3" height="2"></rect>
                </g>
                <g id="Group" fill="#68757C">
                    <path d="M9.12,35.4 L5.42,35.4 C2.83706988,35.2442824 0.863457132,33.0340147 1,30.45 L1,12.52 L7.08,0 L13.53,12.06 L13.53,30.45 C13.6666855,33.0303476 11.6989468,35.2390339 9.12,35.4 Z M3,13 L3,30.45 C2.86601478,31.9291077 3.94323769,33.2422513 5.42,33.4 L9.12,33.4 C10.5927404,33.2372241 11.6642597,31.9256133 11.53,30.45 L11.53,12.56 L7.17,4.4 L3,13 Z" id="Shape" fill-rule="nonzero"></path>
                    <rect id="Rectangle" x="3" y="27.82" width="8.73" height="2"></rect>
                    <rect id="Rectangle" x="2.64" y="12.25" width="9.44" height="2"></rect>
                    <rect id="Rectangle" x="6.22" y="13.72" width="2" height="15.37"></rect>
                </g>
            </g>
        </g>
    </g>
</svg>